<?xml version="1.0" encoding="UTF-8" standalone="no"?>
<svg
   version="1.0"
   width="452.46671pt"
   height="246.35596pt"
   viewBox="0 0 452.4667 246.35596"
   preserveAspectRatio="xMidYMid meet"
   id="svg68"
   xmlns="http://www.w3.org/2000/svg"
   xmlnsSvg="http://www.w3.org/2000/svg">
  <defs
     id="defs72" />
  <metadata
     id="metadata2">
Created by potrace 1.10, written by Peter Selinger 2001-2011
</metadata>
  <g
     transform="matrix(0.1,0,0,-0.1,0.24639115,948.17686)"
     fill="#FFFFFF"
     stroke="none"
     id="g66">
    <path
       d="m 2231,9409 c -34,-89 -40,-99 -66,-99 -14,0 -44,9 -66,20 -22,12 -44,18 -49,15 -5,-3 0,-26 11,-51 31,-70 24,-95 -36,-117 -81,-30 -80,-40 8,-61 32,-8 37,9 5,18 -21,6 -19,8 18,25 54,25 70,72 43,123 -10,19 -9,20 7,13 62,-26 106,-13 128,38 l 14,32 10,-25 c 22,-56 64,-71 126,-45 16,7 18,5 11,-11 -25,-61 -9,-105 48,-130 30,-13 31,-14 10,-20 -13,-3 -23,-11 -23,-16 0,-6 10,-8 23,-4 12,4 35,9 50,13 37,8 29,25 -20,43 -79,29 -87,50 -51,125 12,24 19,47 16,50 -3,4 -29,-3 -56,-15 -28,-12 -59,-20 -69,-18 -10,2 -29,25 -43,55 -33,67 -38,71 -49,42 z"
       id="path4" />
    <path
       d="m 2147,9204 c -4,-4 -7,-35 -7,-69 0,-34 -5,-66 -12,-73 -7,-7 -40,-12 -79,-12 -97,0 -99,-4 -99,-201 0,-138 2,-158 18,-172 16,-15 51,-17 284,-17 244,0 266,1 281,18 14,16 17,43 17,173 0,197 -1,199 -105,199 -48,0 -77,4 -82,13 -4,6 -10,41 -13,77 l -5,65 -95,3 c -53,1 -99,0 -103,-4 z m 173,-69 v -45 h -70 -70 v 45 45 h 70 70 z m 23,-89 c 18,-22 62,-36 118,-36 h 49 l 1,-82 c 0,-46 0,-113 1,-150 0,-37 -3,-72 -7,-77 -7,-13 -145,-15 -145,-3 0,5 9,17 21,28 80,73 60,225 -38,285 -105,65 -253,-12 -270,-141 -6,-46 9,-90 50,-143 l 29,-38 -78,3 -79,3 -3,158 -3,157 h 46 c 50,0 112,22 120,42 8,20 173,15 188,-6 z m -8,-65 c 36,-20 75,-85 75,-124 0,-40 -23,-88 -59,-121 -24,-23 -42,-30 -83,-33 -67,-5 -114,19 -145,73 -80,139 72,285 212,205 z"
       id="path6" />
    <path
       d="m 2220,8950 c -9,-6 -10,-10 -3,-10 7,0 17,-9 23,-20 23,-44 -34,-88 -71,-54 -18,16 -19,16 -19,-10 0,-35 25,-82 49,-96 30,-16 94,-12 117,8 65,52 57,139 -16,177 -33,17 -59,19 -80,5 z m 90,-50 c 60,-60 -24,-151 -101,-110 -23,13 -25,30 -4,30 25,0 65,46 65,75 0,30 13,32 40,5 z"
       id="path8" />
    <path
       d="m 1872,9027 -43,-72 4,48 c 3,26 3,47 1,47 -1,0 -19,-30 -38,-67 -24,-45 -36,-81 -36,-108 0,-31 -11,-59 -46,-115 -58,-93 -57,-93 -52,-47 2,20 3,37 2,37 0,0 -18,-25 -38,-55 -22,-33 -36,-67 -36,-86 0,-21 -14,-49 -46,-90 -25,-32 -47,-59 -50,-59 -2,0 -4,17 -3,38 1,30 2,32 8,14 6,-23 7,-23 23,-5 15,17 14,25 -27,126 -24,60 -57,125 -72,144 -15,19 -42,55 -60,80 -101,144 -196,178 -327,118 -52,-24 -65,-27 -125,-21 -114,11 -190,-23 -245,-112 -15,-24 -32,-45 -39,-47 -134,-46 -163,-68 -201,-146 -13,-27 -43,-60 -81,-89 -73,-57 -100,-95 -116,-166 l -12,-54 h -49 c -45,0 -48,-2 -48,-25 0,-24 3,-25 55,-25 h 55 v -120 -120 h -55 c -52,0 -55,-1 -55,-25 0,-23 3,-25 50,-25 47,0 50,-2 50,-25 0,-23 4,-25 41,-25 39,0 41,1 35,25 -4,17 -2,25 6,25 7,0 26,-40 42,-91 22,-68 39,-101 65,-129 60,-63 145,-74 233,-29 20,10 57,19 80,20 24,0 61,6 83,13 40,12 40,11 66,-24 37,-51 82,-69 196,-80 164,-16 282,-12 330,10 54,24 295,248 327,303 33,57 41,106 26,168 -9,37 -9,54 -1,62 8,8 11,0 11,-31 0,-23 3,-42 6,-42 3,0 19,9 35,21 25,18 29,27 29,69 0,46 2,49 46,79 44,29 46,32 48,81 1,27 -1,50 -4,50 -3,0 -24,-17 -47,-38 l -41,-38 -7,123 c -4,68 -4,180 0,249 l 7,126 42,62 c 32,45 44,75 49,114 3,28 3,52 -1,52 -4,0 -26,-33 -50,-73 z m -52,-128 c -12,-23 -20,-58 -20,-89 0,-50 -8,-61 -28,-37 -7,8 -6,19 3,37 8,14 14,42 15,63 0,47 15,78 35,71 12,-5 11,-12 -5,-45 z m -600,19 c 57,-30 76,-57 116,-170 20,-58 33,-83 33,-66 1,15 -4,39 -9,53 -8,20 -7,26 2,23 18,-6 73,-120 93,-194 16,-58 16,-67 3,-81 -14,-13 -17,-9 -27,31 -6,25 -11,54 -11,65 0,11 -5,23 -12,27 -8,5 -9,-3 -5,-30 7,-42 -5,-40 -29,6 -21,40 -28,30 -9,-14 35,-85 64,-168 56,-164 -5,3 -19,31 -31,61 -12,31 -24,54 -27,52 -2,-3 6,-29 17,-58 56,-142 70,-194 70,-260 0,-57 -4,-72 -25,-97 -24,-29 -86,-53 -170,-67 -54,-9 -33,8 30,24 28,7 55,17 60,23 7,8 5,9 -8,5 -9,-4 -47,-12 -83,-18 -54,-9 -68,-9 -80,3 -8,7 -32,83 -54,168 -41,161 -91,325 -104,338 -9,9 -8,1 60,-270 59,-235 61,-255 39,-297 -15,-30 -88,-70 -127,-72 -22,0 -22,-1 -3,-9 15,-6 8,-9 -27,-9 -39,-1 -50,3 -62,22 -19,29 -124,345 -132,396 -4,22 -10,38 -15,35 -5,-3 -14,15 -21,40 -7,26 -15,46 -19,46 -13,0 11,-89 80,-295 68,-202 78,-245 65,-280 -10,-25 -59,-45 -112,-45 -83,0 -91,11 -171,253 -39,116 -71,220 -71,229 0,9 -4,20 -10,23 -26,16 9,-128 84,-343 25,-72 46,-143 46,-157 0,-27 -18,-40 -71,-50 -60,-11 -95,14 -135,100 -30,62 -37,92 -48,197 -7,69 -18,133 -25,144 -10,17 -11,15 -7,-11 17,-100 18,-110 9,-100 -17,17 -53,168 -53,221 0,73 33,133 92,164 43,23 48,23 65,8 17,-16 18,-14 19,42 3,103 39,144 141,158 61,8 63,8 72,-17 l 9,-26 1,25 c 5,136 129,231 249,189 17,-6 33,-17 36,-26 5,-12 12,-8 29,18 40,60 139,76 217,37 z m -230,-2 c 0,-11 -19,-15 -25,-6 -3,5 1,10 9,10 9,0 16,-2 16,-4 z m -260,-50 c 0,-2 -8,-10 -17,-17 -16,-13 -17,-12 -4,4 13,16 21,21 21,13 z m 631,-58 c 5,-10 6,-18 1,-18 -4,0 -16,17 -25,38 -15,31 -15,34 -1,17 8,-11 20,-28 25,-37 z m -682,-20 c -12,-24 -28,-38 -42,-38 -4,0 5,16 20,35 30,38 41,40 22,3 z m 1090,-247 -1,-219 -29,-28 c -16,-15 -30,-26 -32,-23 -63,90 -60,80 -55,209 l 5,119 53,81 c 29,44 54,80 57,80 2,0 3,-99 2,-219 z m -124,96 c -8,-13 -16,-44 -17,-70 -2,-26 -7,-45 -13,-43 -5,2 -8,12 -7,22 2,10 6,37 9,59 6,43 20,68 34,59 5,-3 2,-15 -6,-27 z M 419,8559 c -19,-12 -24,-2 -8,17 9,11 14,13 17,4 3,-7 -2,-16 -9,-21 z m 1184,-126 c 2,-46 1,-83 -4,-83 -5,0 -9,19 -9,43 0,23 -7,53 -16,65 -15,21 -15,25 2,43 9,10 18,18 19,17 2,-2 5,-40 8,-85 z m -53,27 c 0,-9 -23,-30 -33,-30 -5,0 -3,8 4,17 10,12 5,11 -14,-4 -17,-13 -35,-19 -49,-15 -20,5 -20,6 -2,19 10,7 24,11 31,9 7,-3 15,-1 18,4 6,9 45,10 45,0 z m 14,-36 c 9,-24 7,-28 -9,-14 -17,14 -20,30 -6,30 5,0 12,-7 15,-16 z m -5,-57 c 35,-46 41,-61 41,-103 0,-27 -3,-58 -6,-69 -6,-24 -101,-89 -109,-75 -3,6 6,15 22,21 l 28,10 -24,18 c -23,17 -25,27 -29,130 -3,71 -1,111 6,111 5,0 13,-24 17,-52 4,-29 13,-71 21,-93 l 13,-40 -6,55 c -3,30 -11,76 -18,102 -14,56 -10,55 44,-15 z m -89,21 c 0,-5 -4,-8 -10,-8 -5,0 -10,10 -10,23 0,18 2,19 10,7 5,-8 10,-18 10,-22 z m 389,-25 c 17,10 31,13 31,8 0,-6 -4,-11 -8,-11 -5,0 -25,-16 -45,-35 -31,-30 -37,-43 -37,-77 v -41 l -26,28 -25,27 20,22 c 12,12 21,32 21,43 0,12 3,29 6,37 6,15 8,15 19,-1 13,-17 15,-17 44,0 z M 237,8308 c -3,-8 -6,-5 -6,6 -1,11 2,17 5,13 3,-3 4,-12 1,-19 z m 1414,-3 c 5,4 13,-5 18,-18 6,-14 20,-32 32,-41 19,-13 20,-18 9,-31 -7,-8 -18,-15 -26,-15 -21,0 -51,-39 -51,-66 0,-34 -11,-41 -27,-19 -12,16 -12,23 2,42 9,14 16,53 18,96 4,84 5,88 11,64 2,-9 9,-15 14,-12 z M 309,8015 c -1,-21 -47,124 -53,166 -3,25 7,0 24,-56 16,-55 29,-104 29,-110 z m 16,95 c 17,-19 21,-105 5,-95 -5,3 -10,14 -10,24 0,10 -7,31 -14,47 -8,16 -18,49 -21,74 l -5,45 15,-39 c 8,-22 22,-47 30,-56 z m 1395,75 c -7,-9 -15,-13 -17,-11 -7,7 7,26 19,26 6,0 6,-6 -2,-15 z m -24,-49 c 12,-69 -9,-102 -164,-254 -104,-102 -156,-145 -182,-153 -46,-14 -76,0 -95,44 l -14,32 -1,-37 c 0,-37 -1,-37 -32,-32 -18,3 -38,7 -44,9 -6,2 -16,28 -23,59 -15,69 -29,78 -124,74 l -72,-3 v -53 c 1,-57 -12,-64 -31,-16 -18,45 -3,71 48,83 24,6 63,18 88,26 25,8 57,15 73,15 22,0 27,4 27,25 0,22 4,25 34,25 19,0 42,3 52,7 14,5 16,2 12,-20 -4,-23 -2,-26 16,-22 12,2 29,4 39,4 11,1 17,9 17,26 0,19 7,26 33,33 17,6 40,13 50,17 14,6 17,2 17,-19 0,-30 -2,-29 39,-15 25,9 31,16 31,40 0,24 7,32 50,54 l 50,25 v -30 c 0,-35 2,-36 41,-13 24,14 29,24 29,53 0,60 25,70 36,16 z m -216,-50 c 0,-8 -4,-18 -10,-21 -5,-3 -10,-16 -10,-27 0,-21 -1,-21 -20,-3 l -20,18 22,24 c 25,26 38,29 38,9 z M 270,7996 c -21,-21 -32,9 -18,53 l 13,42 7,-43 c 5,-25 4,-46 -2,-52 z m 930,23 c 0,-5 -11,-9 -25,-9 -24,0 -32,10 -19,22 8,8 44,-3 44,-13 z m 494,-24 c -9,-14 -18,-25 -21,-25 -5,0 5,18 20,38 17,22 18,13 1,-13 z m -400,0 c -4,-8 -10,-15 -14,-15 -4,0 -10,7 -14,15 -4,10 1,15 14,15 13,0 18,-5 14,-15 z m 346,-59 c 0,-2 -8,-10 -17,-17 -16,-13 -17,-12 -4,4 13,16 21,21 21,13 z m -748,-58 c -7,-7 -12,-28 -12,-47 0,-32 -1,-34 -16,-20 -14,14 -13,19 7,53 12,20 24,34 27,31 3,-3 0,-11 -6,-17 z m 213,-51 c 7,-18 17,-46 21,-62 l 7,-28 -77,6 c -43,4 -82,9 -87,13 -5,3 -9,27 -9,55 v 49 h 66 c 64,0 65,0 79,-33 z m -675,-18 c 0,-6 -4,-7 -10,-4 -5,3 -10,11 -10,16 0,6 5,7 10,4 6,-3 10,-11 10,-16 z m 210,-25 c -29,-13 -57,-24 -63,-24 -7,1 2,7 20,15 17,7 36,23 43,34 9,18 14,19 31,10 19,-10 17,-13 -31,-35 z m 627,-80 c -3,-3 -12,-4 -19,-1 -8,3 -5,6 6,6 11,1 17,-2 13,-5 z"
       id="path10" />
    <path
       d="m 840,8870 c 0,-5 15,-10 33,-10 48,0 74,-23 98,-90 24,-66 35,-78 24,-27 -11,47 -42,103 -67,121 -25,18 -88,22 -88,6 z"
       id="path12" />
    <path
       d="m 570,8683 c 55,-20 84,-41 106,-77 24,-38 25,-39 20,-11 -10,44 -68,95 -108,94 -18,0 -26,-3 -18,-6 z"
       id="path14" />
    <path
       d="m 815,7904 c -16,-13 -50,-31 -75,-39 l -45,-15 43,4 c 48,5 86,26 102,56 13,25 12,25 -25,-6 z"
       id="path16" />
    <path
       d="m 1643,8244 c -3,-8 -2,-19 3,-24 5,-5 9,1 9,16 0,28 -3,30 -12,8 z"
       id="path18" />
    <path
       d="m 1560,7948 c -24,-18 -55,-49 -69,-68 -21,-29 -14,-25 44,25 39,32 72,60 74,62 2,2 2,5 -1,8 -3,3 -25,-9 -48,-27 z"
       id="path20" />
    <path
       d="m 1326,7878 c 9,-18 20,-55 24,-83 l 8,-50 1,50 c 1,34 -5,60 -19,83 -25,41 -36,42 -14,0 z"
       id="path22" />
    <path
       d="m 2568,9048 c 4,-40 15,-67 47,-113 25,-37 45,-79 49,-105 9,-60 6,-460 -4,-460 -5,0 -10,3 -12,8 -2,4 -20,23 -41,41 l -37,35 v -55 c 0,-53 1,-55 45,-84 43,-28 45,-33 45,-77 0,-38 5,-50 26,-67 38,-30 44,-27 44,20 0,34 2,39 14,30 11,-9 11,-20 -2,-64 -13,-49 -13,-59 2,-113 16,-55 26,-68 144,-183 208,-203 216,-206 443,-190 85,5 171,15 192,20 41,11 103,60 112,89 5,17 9,18 40,4 19,-8 57,-14 84,-14 31,0 68,-9 103,-25 90,-42 166,-29 224,37 25,28 65,121 90,206 7,24 26,12 22,-13 -5,-23 -2,-25 33,-25 35,0 39,3 39,25 0,23 3,25 50,25 45,0 50,2 50,23 0,21 -4,22 -55,19 l -55,-4 v 115 c 0,63 -3,129 -7,147 -4,23 -3,31 5,26 6,-4 9,-13 5,-21 -4,-12 6,-15 51,-15 51,0 56,2 56,23 0,20 -4,22 -50,20 -41,-1 -50,2 -50,16 0,10 -7,42 -16,72 -16,54 -46,90 -139,164 -21,16 -45,47 -55,70 -24,55 -78,100 -144,119 -46,14 -60,24 -85,59 -66,96 -118,121 -243,119 -74,-1 -94,2 -143,24 -116,53 -218,17 -311,-111 -85,-115 -104,-149 -141,-244 -20,-53 -38,-98 -40,-101 -10,-12 -52,58 -53,88 0,20 -13,52 -34,84 l -35,51 -3,-32 c -3,-30 -5,-29 -50,47 -36,58 -48,88 -48,118 0,26 -12,62 -36,107 -19,37 -36,67 -37,67 -1,0 -1,-21 1,-47 l 3,-48 -43,72 c -24,40 -46,73 -49,73 -3,0 -4,-23 -1,-52 z m 132,-170 c 0,-22 7,-52 15,-67 12,-24 12,-31 1,-40 -19,-16 -26,-3 -26,46 0,24 -7,58 -16,74 -8,17 -13,38 -9,47 11,28 35,-15 35,-60 z m 750,37 c 17,-9 36,-27 42,-40 l 11,-24 26,20 c 107,79 267,-22 272,-171 v -25 l 12,23 c 10,22 15,23 66,17 106,-13 138,-45 148,-148 5,-56 8,-64 20,-52 10,11 20,12 40,4 107,-40 138,-144 92,-309 -19,-72 -47,-125 -35,-70 3,14 7,43 10,65 l 5,40 -14,-30 c -8,-16 -14,-50 -15,-75 -1,-91 -21,-186 -51,-247 -48,-98 -94,-122 -174,-89 -25,11 -35,21 -35,37 0,12 29,108 64,213 36,105 67,216 70,246 8,70 5,64 -85,-210 l -74,-225 -38,-19 c -76,-37 -177,5 -177,73 0,16 33,130 74,253 77,230 92,288 77,288 -5,0 -12,-18 -16,-41 -4,-22 -13,-43 -21,-46 -8,-3 -14,-14 -14,-25 0,-34 -121,-392 -139,-410 -16,-17 -36,-21 -81,-19 -20,1 -22,3 -10,11 12,8 11,10 -8,10 -61,0 -132,65 -132,119 0,11 27,129 60,263 33,133 59,247 57,252 -6,16 -82,-231 -112,-359 -35,-150 -38,-155 -77,-155 -18,0 -60,7 -93,14 -51,12 -57,12 -41,1 10,-8 44,-19 75,-26 31,-7 50,-14 43,-17 -19,-6 -131,17 -163,34 -15,7 -37,26 -49,41 -35,45 -25,149 28,287 44,116 51,155 11,61 -13,-30 -27,-55 -31,-55 -4,0 -1,15 7,34 27,65 64,166 61,166 -2,0 -13,-15 -25,-32 l -21,-33 v 33 c 0,51 -17,29 -25,-33 -7,-60 -16,-73 -35,-50 -10,12 -8,29 10,87 24,80 77,188 92,188 6,0 7,-8 3,-17 -10,-26 -18,-83 -12,-83 3,0 19,42 37,94 47,142 104,191 212,181 26,-2 61,-11 78,-20 z m 70,-6 c 0,-14 -17,-10 -23,5 -4,10 -1,13 9,9 7,-3 14,-9 14,-14 z m 317,-125 c 26,-29 28,-34 12,-34 -12,0 -26,15 -40,43 -12,23 -26,49 -33,58 -6,8 -2,4 9,-9 11,-13 34,-39 52,-58 z m -688,23 c -6,-14 -20,-27 -30,-30 -15,-4 -14,1 9,29 30,38 38,38 21,1 z m -361,-139 50,-77 1,-121 c 2,-117 1,-121 -26,-158 -15,-20 -29,-39 -30,-41 -2,-3 -16,7 -31,22 l -27,27 -2,222 c -1,126 1,217 6,212 5,-5 31,-44 59,-86 z m 82,-60 c 0,-16 5,-36 11,-47 8,-12 9,-23 2,-36 -9,-15 -12,-8 -18,36 -4,29 -14,63 -21,75 -8,11 -11,24 -7,28 12,11 33,-25 33,-56 z m 1225,-56 c -7,-8 -35,13 -35,26 0,13 3,12 19,-4 10,-10 17,-20 16,-22 z m -1095,-64 v -31 l -25,23 c -26,25 -26,42 0,20 12,-10 15,-10 15,4 0,9 2,16 5,16 3,0 5,-14 5,-32 z m -85,-37 c -9,-18 -13,-41 -10,-51 3,-11 2,-28 -4,-37 -9,-15 -10,-12 -11,18 0,20 3,57 6,83 6,41 9,46 21,33 13,-13 13,-19 -2,-46 z m 61,7 c 5,-7 3,-8 -6,-3 -9,5 -11,4 -6,-3 5,-9 13,-9 27,-2 14,8 25,7 41,-5 13,-8 18,-15 12,-15 -6,0 -10,-12 -9,-27 2,-18 1,-20 -2,-6 -4,22 -35,39 -52,28 -5,-3 -13,-1 -16,5 -4,6 -14,1 -25,-12 -11,-13 -19,-18 -20,-12 0,6 7,17 15,24 8,7 13,16 10,20 -3,5 1,11 7,13 7,3 14,6 15,6 1,1 5,-4 9,-11 z m 1,-70 c -14,-55 -29,-160 -24,-164 6,-6 37,124 37,155 0,11 5,23 10,26 6,4 10,-26 10,-83 0,-119 -6,-144 -39,-163 -26,-15 -30,-15 -48,0 -16,12 -22,32 -26,84 -6,67 -6,69 31,117 40,53 57,63 49,28 z m -307,-33 c 20,24 30,18 30,-17 0,-19 9,-42 23,-57 l 23,-26 -28,-27 -28,-27 v 36 c 0,43 -22,83 -61,109 -16,10 -29,23 -29,27 0,5 13,-1 29,-12 25,-18 30,-19 41,-6 z m 215,-195 c 11,-20 11,-28 1,-43 -19,-24 -26,-21 -26,11 0,29 -22,56 -62,76 -25,13 -36,36 -16,36 7,0 19,9 26,20 7,12 17,18 21,15 5,-3 7,5 4,17 -4,19 -3,20 6,8 9,-12 11,-11 12,10 1,14 6,-9 11,-50 5,-41 15,-86 23,-100 z m 1345,-12 c -13,-51 -29,-104 -37,-118 -8,-14 -12,-17 -9,-7 22,72 36,140 30,149 -4,6 -3,8 4,5 6,-5 13,9 17,34 4,22 9,38 12,35 3,-3 -5,-47 -17,-98 z m -1400,-30 c 0,-34 4,-40 39,-58 l 40,-20 -6,36 -6,36 51,-29 c 43,-23 52,-33 52,-56 0,-20 7,-30 26,-37 37,-15 44,-13 44,14 v 24 l 50,-16 c 40,-13 50,-20 50,-38 0,-23 17,-34 56,-34 17,0 23,5 21,18 -2,20 1,22 53,22 36,0 40,-2 40,-25 0,-21 5,-25 30,-25 17,0 43,-6 58,-14 15,-7 43,-17 62,-20 89,-18 112,-43 88,-93 -21,-43 -34,-38 -29,13 4,57 -5,64 -84,64 -80,0 -100,-15 -116,-85 -7,-30 -18,-55 -24,-55 -7,0 -27,-3 -44,-6 -30,-6 -31,-5 -31,26 v 33 l -23,-34 c -27,-40 -61,-48 -108,-23 -37,19 -242,214 -234,222 3,3 24,-12 48,-34 23,-22 53,-49 66,-59 l 25,-20 -23,33 c -29,41 -100,94 -118,88 -17,-7 -71,61 -83,105 -6,20 -7,50 -4,66 4,22 2,32 -10,36 -9,4 -16,11 -16,17 0,6 14,1 30,-12 24,-17 30,-29 30,-60 z m 1357,-37 c -38,-93 -36,-90 -36,-40 -1,29 4,51 13,58 8,7 18,27 23,44 l 7,32 4,-29 c 2,-16 -3,-45 -11,-65 z m -1179,42 c 5,-18 -10,-16 -34,2 -18,15 -18,15 5,13 14,-2 26,-9 29,-15 z m 52,-87 c -17,-21 -30,-20 -30,2 0,10 -5,23 -11,29 -6,6 -8,17 -4,23 5,9 15,5 33,-13 21,-22 23,-28 12,-41 z m 1185,-6 c 3,-11 2,-27 -3,-35 -8,-15 -10,-15 -21,-1 -13,15 -6,56 9,56 5,0 11,-9 15,-20 z m -905,-11 c 0,-5 -12,-9 -27,-9 -27,1 -27,1 -9,15 19,14 36,12 36,-6 z m -485,-79 59,-65 -53,50 c -29,28 -57,59 -63,70 -6,11 -9,18 -6,15 2,-3 31,-34 63,-70 z m 369,49 c -8,-13 -21,-11 -27,5 -4,10 0,12 14,9 10,-3 16,-9 13,-14 z m 396,-126 c 19,-33 20,-38 6,-52 -15,-14 -16,-12 -16,21 0,20 -4,40 -10,43 -10,6 -14,25 -6,25 2,0 14,-16 26,-37 z m -95,-58 c 0,-44 -3,-50 -25,-56 -26,-7 -140,-12 -140,-5 0,3 20,63 35,104 3,9 23,12 67,10 l 63,-3 z m 556,17 c -5,-10 -18,-25 -27,-33 -11,-9 -9,-2 6,19 26,35 36,42 21,14 z m -216,-28 c 24,-24 25,-25 3,-19 -12,4 -35,13 -52,20 -29,13 -26,17 16,24 4,0 19,-11 33,-25 z m -505,-84 c 0,-5 -4,-10 -10,-10 -5,0 -10,5 -10,10 0,6 5,10 10,10 6,0 10,-4 10,-10 z m -113,-6 c -3,-3 -12,-4 -19,-1 -8,3 -5,6 6,6 11,1 17,-2 13,-5 z"
       id="path24" />
    <path
       d="m 3555,8849 c -23,-21 -40,-48 -50,-82 -20,-69 -13,-70 15,-2 27,66 60,95 109,95 27,0 32,3 21,10 -27,18 -59,10 -95,-21 z"
       id="path26" />
    <path
       d="m 3860,8677 c -28,-14 -70,-72 -70,-96 0,-10 7,-4 19,14 24,39 48,60 91,78 32,14 33,15 10,16 -14,0 -36,-5 -50,-12 z"
       id="path28" />
    <path
       d="m 3650,7911 c 17,-32 70,-61 110,-60 l 35,1 -40,9 c -22,5 -57,24 -79,41 -32,26 -36,27 -26,9 z"
       id="path30" />
    <path
       d="m 2838,8238 c 4,-16 2,-19 -8,-13 -9,5 -11,4 -6,-3 4,-7 11,-12 17,-12 12,0 12,37 0,44 -5,4 -7,-4 -3,-16 z"
       id="path32" />
    <path
       d="m 3154,7885 c -19,-29 -32,-129 -18,-138 5,-3 9,16 10,42 0,26 8,62 17,80 21,42 15,52 -9,16 z"
       id="path34" />
    <path
       d="m 1987,7593 c -21,-24 -21,-37 -1,-57 40,-41 116,5 86,51 -15,23 -66,26 -85,6 z m 53,-33 c 0,-5 -7,-10 -15,-10 -8,0 -15,5 -15,10 0,6 7,10 15,10 8,0 15,-4 15,-10 z"
       id="path36" />
    <path
       d="m 3608,7599 c -25,-14 -23,-56 3,-69 28,-16 59,-9 76,17 13,19 12,24 -6,42 -23,23 -46,26 -73,10 z m 52,-39 c 0,-5 -6,-10 -14,-10 -8,0 -18,5 -21,10 -3,6 3,10 14,10 12,0 21,-4 21,-10 z"
       id="path38" />
    <path
       d="m 3760,7405 v -195 h 50 50 v 195 195 h -50 -50 z m 60,-5 c 0,-136 -2,-160 -15,-160 -13,0 -15,24 -15,160 0,136 2,160 15,160 13,0 15,-24 15,-160 z"
       id="path40" />
    <path
       d="m 403,7560 c -86,-52 -69,-147 37,-200 69,-35 76,-43 54,-64 -19,-20 -28,-20 -90,-1 -27,8 -51,15 -54,15 -3,0 -4,-20 -2,-45 4,-43 5,-45 40,-50 21,-3 45,-8 54,-9 9,-2 37,1 62,6 58,12 96,54 96,107 0,50 -21,76 -91,111 -44,23 -59,36 -59,51 0,20 4,21 48,16 26,-2 54,-8 63,-11 12,-5 18,0 23,17 3,14 9,32 12,40 14,36 -140,50 -193,17 z m 126,-16 c 50,-10 36,-21 -22,-16 -43,3 -55,1 -71,-16 -31,-35 -10,-71 65,-112 61,-34 64,-37 67,-76 4,-60 -28,-84 -114,-84 -34,0 -66,5 -70,11 -4,7 10,9 47,4 50,-6 56,-4 78,19 37,39 21,73 -53,112 -66,36 -76,47 -76,90 0,55 65,84 149,68 z"
       id="path42" />
    <path
       d="m 2930,7397 v -187 h 50 50 v 65 c 0,86 17,86 67,0 l 38,-65 h 57 57 l -54,78 -53,77 29,33 c 20,23 29,43 29,68 0,77 -39,102 -175,111 l -95,6 z m 100,134 c 0,-6 -4,-13 -10,-16 -5,-3 -10,-31 -10,-61 0,-42 4,-56 19,-66 18,-11 18,-12 -5,-31 -20,-15 -24,-28 -24,-68 0,-37 -4,-49 -15,-49 -15,0 -17,29 -17,255 0,19 1,37 1,40 2,9 61,5 61,-4 z m 110,-6 c 25,-13 30,-22 30,-51 0,-24 -9,-46 -25,-66 -32,-38 -31,-50 3,-101 45,-66 45,-67 24,-67 -12,0 -34,24 -64,69 l -44,69 33,26 c 44,36 45,74 2,110 -28,24 -29,26 -9,26 11,0 34,-7 50,-15 z m -42,-59 c 4,-33 -3,-41 -40,-50 -27,-6 -28,-5 -28,39 0,46 0,46 33,43 27,-3 33,-7 35,-32 z"
       id="path44" />
    <path
       d="m 650,7353 v -143 h 50 50 v 79 c 0,104 11,133 48,129 l 27,-3 3,-102 3,-103 h 49 50 v 104 c 0,58 -4,116 -10,130 -21,55 -115,71 -160,26 -19,-19 -20,-19 -25,3 -5,19 -13,22 -46,22 h -39 z m 74,88 c 13,-14 14,-24 6,-45 -5,-15 -10,-56 -10,-92 0,-50 -3,-64 -15,-64 -12,0 -15,19 -15,110 0,61 4,110 8,110 5,0 16,-8 26,-19 z m 160,3 c 12,-12 16,-37 16,-110 0,-87 -1,-94 -20,-94 -18,0 -20,7 -20,81 0,76 -2,82 -29,110 l -29,29 h 33 c 18,0 41,-7 49,-16 z"
       id="path46" />
    <path
       d="m 1074,7491 c -66,-17 -67,-17 -49,-51 13,-26 20,-30 38,-23 41,14 81,9 85,-9 3,-15 -4,-18 -32,-18 -56,0 -112,-27 -126,-60 -15,-35 -5,-82 20,-105 28,-25 94,-23 130,3 28,21 29,21 35,2 5,-15 15,-20 41,-20 h 34 v 110 c 0,106 -1,111 -27,140 -31,33 -91,46 -149,31 z m 124,-47 c 20,-14 22,-23 22,-110 0,-52 -3,-94 -7,-94 -21,0 -42,34 -36,61 3,16 0,35 -6,43 -9,10 -9,20 0,40 10,21 9,29 -4,44 -10,10 -17,22 -17,25 0,12 25,7 48,-9 z m -135,-129 c -4,-26 -1,-41 12,-55 18,-20 17,-20 -13,-20 -51,0 -72,65 -30,94 33,23 37,20 31,-19 z m 91,3 c -10,-35 -25,-49 -48,-46 -31,4 -34,46 -4,57 43,18 60,14 52,-11 z"
       id="path48" />
    <path
       d="m 1320,7493 c 0,-2 -1,-94 -1,-204 v -202 l 46,-1 45,-1 v 79 c 0,78 0,79 19,62 26,-24 86,-23 113,1 69,61 60,221 -14,259 -36,19 -82,10 -103,-19 l -14,-21 -9,24 c -7,18 -16,23 -45,24 -20,1 -37,0 -37,-1 z m 67,-44 c 6,-6 9,-35 6,-73 -4,-39 -1,-71 7,-85 9,-19 9,-26 -5,-41 -12,-13 -16,-33 -14,-72 3,-42 0,-54 -13,-56 -14,-3 -17,10 -20,95 -7,211 3,268 39,232 z m 149,-10 c 15,-16 19,-36 19,-89 0,-80 -19,-110 -69,-110 h -31 l 30,24 c 28,22 30,29 30,86 0,55 -3,64 -28,86 l -28,24 h 29 c 17,0 37,-9 48,-21 z m -57,-33 c 19,-22 10,-107 -12,-120 -39,-23 -74,64 -47,115 13,22 43,25 59,5 z"
       id="path50" />
    <path
       d="m 1650,7493 c 0,-2 -1,-94 -1,-204 v -202 l 46,-1 45,-1 v 79 c 0,78 0,79 19,62 26,-24 86,-23 113,1 69,61 60,221 -14,259 -36,19 -82,10 -103,-19 l -14,-21 -9,24 c -7,18 -16,23 -45,24 -20,1 -37,0 -37,-1 z m 67,-44 c 6,-6 9,-35 6,-73 -4,-39 -1,-71 7,-85 9,-19 9,-26 -5,-41 -9,-10 -16,-29 -15,-42 5,-57 0,-88 -15,-88 -13,0 -15,26 -15,170 0,133 3,170 13,170 7,0 18,-5 24,-11 z m 149,-10 c 15,-16 19,-36 19,-89 0,-80 -19,-110 -69,-110 -31,0 -31,0 -10,18 33,26 43,54 40,107 -2,38 -8,53 -30,72 l -27,23 h 29 c 17,0 37,-9 48,-21 z m -57,-33 c 19,-22 10,-107 -12,-120 -39,-23 -74,64 -47,115 13,22 43,25 59,5 z"
       id="path52" />
    <path
       d="m 1978,7352 -3,-142 h 48 47 v 143 142 h -45 -44 z m 62,-2 c 0,-91 -3,-110 -15,-110 -12,0 -15,19 -15,110 0,91 3,110 15,110 12,0 15,-19 15,-110 z"
       id="path54" />
    <path
       d="m 2140,7353 v -143 h 50 50 v 86 c 0,96 10,124 44,124 32,0 36,-15 36,-121 v -89 h 50 50 v 99 c 0,122 -11,158 -57,177 -38,16 -95,10 -114,-12 -15,-19 -27,-18 -31,2 -2,11 -15,17 -40,19 l -38,2 z m 74,88 c 14,-15 15,-24 7,-40 -6,-11 -11,-51 -11,-90 0,-64 -2,-71 -20,-71 -19,0 -20,7 -20,110 0,117 7,132 44,91 z m 154,7 c 8,-8 12,-47 12,-110 0,-80 -3,-98 -15,-98 -12,0 -15,16 -15,81 0,76 -2,82 -29,110 l -29,29 h 32 c 17,0 37,-5 44,-12 z"
       id="path56" />
    <path
       d="m 2543,7488 c -18,-4 -39,-18 -48,-30 -22,-33 -19,-94 6,-119 19,-19 19,-22 5,-38 -20,-22 -20,-40 1,-63 14,-16 14,-18 0,-18 -45,0 -63,-72 -26,-106 25,-23 140,-32 193,-14 46,15 76,53 76,96 0,53 -28,74 -99,74 -33,0 -66,3 -75,6 -28,11 -17,24 19,24 48,0 101,23 115,51 7,12 10,37 7,55 -5,29 -3,34 14,34 14,0 19,7 19,28 v 27 l -88,1 c -48,1 -101,-3 -119,-8 z m 9,-50 c -17,-17 -15,-59 3,-85 10,-15 12,-24 4,-28 -5,-4 -12,-5 -13,-4 -43,57 -48,100 -14,123 24,17 39,13 20,-6 z m 144,6 c -3,-9 -6,-28 -6,-44 0,-28 -22,-60 -41,-60 -6,0 -6,7 1,19 13,25 13,68 0,76 -20,12 -9,25 21,25 24,0 30,-3 25,-16 z m -68,-40 c 4,-38 -20,-63 -43,-44 -15,13 -21,61 -8,74 4,4 16,6 28,4 14,-2 21,-12 23,-34 z m 2,-164 c 82,0 108,-27 80,-81 -16,-29 -30,-23 -24,10 9,41 -28,64 -95,59 -43,-3 -52,0 -62,19 -18,34 -2,45 26,17 19,-19 34,-24 75,-24 z m 30,-50 c 24,-16 -16,-40 -66,-40 -45,0 -60,11 -50,35 6,18 92,21 116,5 z m -138,-42 c 6,-14 5,-18 -7,-18 -19,0 -30,24 -20,48 6,14 8,15 13,2 2,-8 9,-23 14,-32 z"
       id="path58" />
    <path
       d="m 3341,7489 c -24,-5 -45,-10 -47,-12 -2,-2 1,-18 7,-36 9,-26 15,-30 33,-24 41,14 90,9 94,-9 3,-14 -3,-18 -30,-18 -88,0 -138,-35 -138,-97 0,-37 34,-81 65,-84 48,-4 76,2 95,21 19,19 20,19 30,0 8,-14 21,-20 45,-20 h 35 v 103 c 0,117 -10,144 -60,169 -38,19 -61,21 -129,7 z m 130,-39 c 17,-10 19,-22 19,-110 0,-55 -4,-100 -9,-100 -20,0 -33,30 -26,60 5,23 2,37 -10,50 -11,12 -13,20 -6,25 16,9 13,46 -6,67 -15,17 -15,18 1,18 10,0 26,-5 37,-10 z m -131,-119 c -15,-29 -12,-49 10,-71 20,-20 20,-20 -8,-20 -15,0 -33,5 -40,12 -20,20 -14,65 10,82 30,21 41,20 28,-3 z m 90,-16 c 0,-26 -32,-50 -56,-41 -20,8 -18,43 4,55 31,19 52,13 52,-14 z"
       id="path60" />
    <path
       d="m 3594,7491 c -2,-2 -4,-67 -4,-143 v -138 h 50 50 v 143 142 h -46 c -25,0 -48,-2 -50,-4 z m 66,-141 c 0,-91 -3,-110 -15,-110 -12,0 -15,19 -15,110 0,91 3,110 15,110 12,0 15,-19 15,-110 z"
       id="path62" />
    <path
       d="m 3983,7489 c -34,-10 -63,-42 -63,-71 0,-38 24,-68 76,-92 84,-40 68,-66 -23,-43 l -53,14 v -38 c 0,-45 12,-51 102,-51 80,0 112,22 116,82 4,51 -11,70 -79,99 -27,12 -49,26 -49,32 0,12 62,8 91,-5 13,-5 19,1 28,25 6,18 11,33 11,34 0,5 -90,25 -107,24 -10,0 -32,-5 -50,-10 z m 15,-49 c -18,-28 -3,-49 60,-83 47,-25 52,-32 52,-62 0,-37 -5,-42 -51,-55 l -31,-9 26,24 c 14,13 26,29 26,35 0,16 -47,60 -63,60 -21,0 -67,39 -67,57 0,21 29,53 47,53 11,0 11,-4 1,-20 z"
       id="path64" />
  </g>
  <path
     style="fill:#FFFFFF;stroke-width:0.122683"
     d="m 202.58507,190.44785 c -1.15826,-0.0721 -2.50568,1.04311 -1.97969,2.25884 0.67605,1.46094 2.93948,1.57113 3.99269,0.47971 0.85683,-0.86296 0.18666,-2.34841 -0.92155,-2.59286 -0.34988,-0.11945 -0.72303,-0.16142 -1.09145,-0.14569 z"
     id="path2214" />
  <path
     style="fill:#FFFFFF;stroke-width:0.122683"
     d="m 202.70608,201.41787 c -1.38664,0.10031 -1.83905,1.68543 -1.92731,2.85071 -0.47808,5.16338 -0.2934,10.36151 -0.18537,15.53801 0.11252,1.54383 0.0515,3.27087 0.95367,4.60155 0.83098,0.98712 2.45657,0.44798 2.81594,-0.7083 0.66398,-2.04477 0.45851,-4.24942 0.57764,-6.36854 0.0134,-4.44911 0.2504,-8.92474 -0.26806,-13.35411 -0.13596,-1.10677 -0.60386,-2.57553 -1.96651,-2.55932 z"
     id="path2253" />
  <path
     style="fill:#FFFFFF;stroke-width:0.122683"
     d="m 180.22834,201.36444 c -0.66313,-0.0188 -1.7454,0.005 -1.71516,0.92827 0.33065,0.91968 1.33936,1.37634 1.98821,2.06102 1.36445,1.15923 2.87432,2.44975 3.15475,4.32925 0.54294,2.75982 0.6757,5.66871 0.0215,8.42028 -0.57766,2.12139 -2.14448,3.75602 -3.80244,5.10906 -0.53345,0.56941 -1.6338,1.26528 -1.11684,2.16875 0.62922,0.81622 1.80152,0.43141 2.68775,0.54813 2.04306,0.0719 4.27944,-0.36106 5.67383,-1.98534 2.06475,-2.33036 2.25804,-5.63903 2.37831,-8.60235 10e-4,-2.6525 0.11182,-5.37563 -0.59798,-7.95596 -0.91846,-3.02596 -4.01307,-5.02719 -7.12023,-4.98738 -0.5167,-0.0268 -1.03426,-0.039 -1.55165,-0.0337 z"
     id="path2292" />
  <path
     style="fill:#FFFFFF;stroke-width:0.122683"
     d="m 169.48571,201.40828 c -1.27758,0.15586 -1.39032,1.70949 -1.56827,2.72106 -0.51344,4.3744 -0.33532,8.79325 -0.42974,13.18861 0.0222,5.66205 -0.14249,11.3439 0.38376,16.98825 0.11878,1.09493 0.59995,2.65375 1.9351,2.65102 1.48759,-0.19451 2.05884,-1.87932 2.22578,-3.16674 0.39732,-2.41875 -0.0331,-4.86425 0.0515,-7.29002 0.19804,-1.67178 1.41041,-2.89049 2.27562,-4.23879 0.74852,-1.75301 -0.6069,-3.43008 -0.92059,-5.11073 -0.86943,-4.39083 0.68059,-8.95177 -0.41286,-13.34771 -0.36164,-1.51204 -2.14204,-2.25801 -3.5403,-2.39495 z"
     id="path2331" />
  <path
     style="fill:#FFFFFF;stroke-width:0.122683"
     d="m 218.80361,201.25757 c -1.31046,0.14115 -1.71954,1.66291 -1.92507,2.75628 -0.4533,3.35066 -0.22631,6.75008 -0.29537,10.12155 0.0655,2.94699 -0.14581,5.91964 0.2429,8.84847 0.19858,1.2424 1.41884,2.21585 2.68751,1.95191 1.2444,0.0743 2.14932,-1.0461 2.2392,-2.20734 0.55993,-4.41815 0.035,-8.94473 0.9793,-13.31943 0.38557,-1.31907 1.2083,-2.6733 0.70518,-4.08687 -0.6173,-1.3227 -1.7448,-2.35029 -2.81163,-3.31841 -0.53021,-0.38212 -1.14541,-0.75694 -1.82202,-0.74616 z"
     id="path2370" />
  <path
     style="fill:#FFFFFF;stroke-width:0.122683"
     d="m 230.20996,201.37834 c -0.65531,-0.0953 -1.59938,0.19782 -1.38137,1.03944 0.94566,1.37187 2.29415,2.43744 3.39463,3.69067 1.25407,1.14686 2.04662,2.7975 2.04794,4.48248 0.27464,4.0256 0.018,8.17001 0.55689,12.21587 0.0838,1.14746 1.03752,2.42553 2.31372,2.07818 1.43483,-0.43437 1.50439,-2.21088 1.66268,-3.4459 0.2983,-4.49985 0.25389,-9.02394 0.006,-13.52551 -0.20441,-1.67934 -0.14716,-3.57123 -1.19544,-4.99068 -1.38617,-1.43792 -3.57551,-1.38414 -5.42678,-1.51748 -0.65906,-0.0221 -1.31859,-0.0351 -1.97802,-0.0271 z"
     id="path2448" />
  <path
     style="fill:#FFFFFF;stroke-width:0.122683"
     d="m 267.34131,201.40038 c -1.36642,0.0346 -3.20824,0.1957 -3.7744,1.67323 -0.35906,1.12786 0.78693,1.82175 1.43505,2.51427 0.60767,1.32981 0.40947,2.88507 0.21972,4.29389 -0.17232,1.47132 -1.37255,2.70877 -1.20621,4.22224 0.25547,1.09451 1.66366,0.99807 2.41363,0.49193 2.29744,-1.29431 3.50112,-3.94233 3.58847,-6.50681 0.0364,-1.71983 0.43527,-3.40259 0.74998,-5.09723 -0.0338,-1.26817 -1.52824,-1.51163 -2.52793,-1.56588 -0.29892,-0.0209 -0.59868,-0.0289 -0.89831,-0.0256 z"
     id="path2487" />
  <path
     style="fill:#FFFFFF;stroke-width:0.122683"
     d="m 255.6467,201.99798 c -1.62934,0.23617 -3.06208,1.30855 -4.1058,2.54087 -1.65813,2.11257 -1.14119,5.08334 -0.12861,7.36025 0.7811,1.64902 1.67301,3.30785 2.93498,4.63723 0.96056,0.75152 2.3408,-0.0511 2.8816,-0.94671 0.54641,-1.42149 -0.69486,-2.67595 -1.24168,-3.88726 -0.94907,-1.82351 -1.23734,-4.10073 -0.45359,-6.0287 0.45965,-0.99385 1.80024,-1.80865 1.38928,-3.03687 -0.22133,-0.48197 -0.78419,-0.65281 -1.27618,-0.63881 z"
     id="path2526" />
  <path
     style="fill:#FFFFFF;stroke-width:0.122683"
     d="m 253.07036,219.39805 c -1.21861,0.058 -1.74515,1.52048 -1.34615,2.54518 0.46346,1.66236 1.37111,3.55725 3.16411,4.06457 3.2127,0.60607 6.5505,-0.31322 9.73907,0.49201 1.54452,0.38741 3.34631,1.37141 3.50848,3.13767 0.0739,1.51478 -0.50515,3.16265 0.16845,4.59701 0.548,0.86138 1.82445,0.8003 2.42705,0.0321 1.36209,-1.54896 2.25471,-3.58527 2.37458,-5.65179 0.005,-2.21841 -1.86639,-3.99788 -3.9256,-4.50067 -3.24041,-0.97565 -6.68528,-0.43037 -9.967,-1.11421 -2.39791,-0.48982 -3.59447,-3.18606 -6.00569,-3.60116 -0.0457,-0.002 -0.0916,-0.003 -0.1373,-7.2e-4 z"
     id="path2565" />
  <path
     style="fill:#FFFFFF;stroke-width:0.122683"
     d="m 250.40321,228.47751 c -1.01265,0.22981 -1.24887,1.46699 -1.58648,2.29862 -0.6423,1.88936 0.0946,4.38865 2.12993,5.04652 0.96446,0.32128 2.63835,0.10012 2.6233,-1.20862 -0.25719,-1.74976 -1.38558,-3.2034 -1.8733,-4.88334 -0.21455,-0.56706 -0.5784,-1.29541 -1.29345,-1.25318 z"
     id="path2604" />
  <path
     style="fill:#FFFFFF;stroke-width:0.0433748"
     d="m 137.21559,201.5176 c -0.9052,-0.006 -1.58145,0.75297 -1.90671,1.52972 -0.65851,1.56031 -0.80994,3.27231 -0.9735,4.94119 -0.27859,3.26451 -0.23036,6.54455 -0.23287,9.8176 0.0466,4.69956 0.13734,9.40187 0.44923,14.09229 0.11574,1.23545 0.17018,2.50585 0.60872,3.67927 0.24091,0.62309 0.80201,1.23704 1.52709,1.16782 0.88205,0.049 1.8111,-0.43128 2.13698,-1.28083 0.48127,-1.11287 0.36793,-2.36088 0.35784,-3.54301 -0.0752,-1.82597 -0.22188,-3.66454 0.008,-5.48546 0.13441,-1.02527 0.4592,-2.07116 1.19484,-2.82994 0.63394,-0.72334 1.28765,-1.57677 1.22535,-2.59395 -0.0134,-1.32534 -0.9288,-2.40303 -1.16544,-3.67747 -0.40154,-1.8756 -0.31335,-3.79575 -0.22212,-5.68836 0.15818,-1.88903 0.22276,-3.78938 0.14193,-5.68386 -0.10066,-0.96174 -0.16519,-1.97185 -0.61347,-2.84692 -0.46072,-0.67019 -1.1418,-1.19741 -1.89696,-1.49567 -0.20569,-0.0678 -0.42231,-0.10473 -0.63911,-0.10242 z"
     id="path2643" />
  <path
     style="fill:#FFFFFF;stroke-width:0.0433748"
     d="m 146.91088,201.42991 c -0.45704,0.0157 -1.02728,-0.0759 -1.32615,0.36327 -0.25019,0.37772 -0.0805,0.87686 0.27529,1.11905 1.30918,1.18816 2.72325,2.24516 3.90428,3.55679 0.8635,0.96074 1.07128,2.28846 1.13226,3.53251 0.11815,2.21504 0.10219,4.41427 0.009,6.61915 -0.0717,1.17246 -0.30462,2.44043 -1.19241,3.28849 -1.14357,1.10539 -2.40412,2.01506 -3.63133,3.03242 -0.34558,0.32951 -0.83255,0.5494 -1.02364,1.0101 -0.15157,0.49467 0.28061,1.00724 0.78736,0.9828 1.4151,0.0303 2.83651,0.052 4.24768,-0.075 1.5308,-0.14194 3.0558,-0.76474 4.08339,-1.93799 1.35046,-1.52178 1.82376,-3.58442 2.09392,-5.54705 0.25658,-1.9124 0.20936,-3.84839 0.21333,-5.77323 -0.0425,-1.75946 -0.1026,-3.54875 -0.59743,-5.24951 -0.51195,-1.77558 -1.8412,-3.2478 -3.48503,-4.06186 -1.02382,-0.51155 -2.15023,-0.88586 -3.30784,-0.84276 -0.72749,-0.01 -1.45506,-0.0186 -2.18263,-0.0172 z"
     id="path2682" />
  <path
     style="fill:#FFFFFF;stroke-width:0.0433748"
     d="m 116.1467,201.4638 c -0.76299,-0.0463 -1.58331,0.48307 -1.65934,1.28193 -0.0174,0.70559 0.45716,1.29637 0.82666,1.85724 0.53576,0.81905 1.34907,1.43101 1.79099,2.31284 0.35596,0.77372 -0.0493,1.60765 -0.34749,2.32843 -0.50032,1.09994 -1.01036,2.31511 -0.77432,3.54691 0.12099,0.62601 0.52677,1.12667 0.86664,1.64452 0.52282,1.07044 0.47912,2.31287 0.35632,3.46854 -0.29583,1.4665 -0.004,3.00899 0.7113,4.31331 0.60494,1.13219 1.54014,2.20211 2.80448,2.58467 0.3885,0.0563 -0.23928,-0.0308 0.22827,0.0615 0.49552,0.12222 1.14585,0.0581 1.38113,-0.46747 0.33333,-0.79646 0.3387,-1.68268 0.43682,-2.52957 0.27867,-3.21577 0.20819,-6.44669 0.21285,-9.6707 -0.0248,-2.06166 0.022,-4.15158 -0.42653,-6.17625 -0.21845,-1.00257 -0.81155,-1.89862 -1.62674,-2.51751 -1.17242,-0.91139 -2.52163,-1.64728 -3.98275,-1.95884 -0.26299,-0.0499 -0.53031,-0.0814 -0.79829,-0.0795 z"
     id="path2721" />
  <path
     style="fill:#FFFFFF;stroke-width:0.0433748"
     d="m 106.15388,212.578 c -0.91995,0.0571 -1.68948,0.64181 -2.44751,1.10844 -1.00378,0.63732 -1.96764,1.40946 -2.53628,2.47732 -1.08574,1.89296 -0.90938,4.36934 0.31245,6.15605 1.07617,1.65117 3.03103,2.66142 4.99852,2.60952 0.79439,-0.0205 1.60651,0.0424 2.38596,-0.13784 0.60959,-0.1384 0.97221,-0.84709 0.72813,-1.42256 -0.35964,-0.80694 -1.07331,-1.37835 -1.59072,-2.07928 -0.8204,-0.99133 -0.95768,-2.35052 -0.81278,-3.5846 0.12722,-1.1499 0.36116,-2.29378 0.30729,-3.45686 0.0538,-0.63653 -0.2206,-1.36201 -0.8642,-1.5897 -0.15331,-0.0569 -0.31756,-0.0825 -0.48086,-0.0805 z"
     id="path2760" />
  <path
     style="fill:#FFFFFF;stroke-width:0.0613412"
     d="m 70.104256,201.42781 c -0.695037,-0.001 -1.000252,0.73018 -1.071322,1.31658 -0.432491,2.56803 -0.431882,5.18453 -0.501587,7.7811 -0.02596,3.58444 -0.08722,7.17594 0.161726,10.75429 0.128379,1.0748 0.158163,2.27843 0.881516,3.15053 0.669898,0.75516 1.983947,0.65618 2.552371,-0.17061 0.751942,-1.04427 0.729606,-2.40474 0.816058,-3.634 0.137411,-3.68712 0.03638,-7.38741 0.83729,-11.00444 0.291018,-1.3473 1.014961,-2.71451 0.601902,-4.12299 -0.42157,-1.38888 -1.572774,-2.37814 -2.638154,-3.28955 -0.484828,-0.34603 -1.022788,-0.75247 -1.6398,-0.78091 z"
     id="path2799" />
  <path
     style="fill:#FFFFFF;stroke-width:0.0613412"
     d="m 82.065684,201.42458 c -0.59769,0.0392 -1.228343,-0.0628 -1.804455,0.11024 -0.552518,0.20944 -0.595748,1.00406 -0.14112,1.34407 1.418835,1.49925 2.978557,2.88115 4.22622,4.53249 0.871987,1.25549 0.98331,2.82148 1.05792,4.28559 0.117412,3.38039 0.05618,6.77335 0.2265,10.16079 0.127605,1.00244 0.271365,2.22464 1.23153,2.78856 0.75489,0.3927 1.673017,0.33039 2.47821,0.14592 1.022865,-0.37053 1.347292,-1.54331 1.45554,-2.51762 0.262035,-2.28645 0.148582,-4.59443 0.18507,-6.89083 -0.0417,-3.17655 0.113775,-6.39436 -0.52443,-9.52581 -0.27078,-1.35622 -0.996128,-2.70312 -2.268248,-3.35154 -1.56489,-0.84597 -3.367042,-1.12211 -5.128455,-1.08055 -0.331425,-0.003 -0.662857,-0.002 -0.994282,-0.002 z"
     id="path2838" />
  <path
     style="fill:#FFFFFF;stroke-width:0.0867495"
     d="m 48.607787,192.57874 c -3.21857,0.0254 -6.687884,0.75247 -9.063981,3.06911 -1.433269,1.37843 -2.167994,3.38465 -2.050551,5.36272 -0.04534,1.89214 0.472133,3.8814 1.869211,5.23027 1.891269,1.81458 4.307975,2.93307 6.545221,4.24823 1.981647,1.18866 4.14356,2.30864 5.547758,4.20591 0.772101,1.03784 1.115928,2.48415 0.46306,3.66924 -0.679067,1.30722 -1.743655,2.39352 -2.903401,3.28293 -1.321768,0.83271 -2.959521,0.4728 -4.42169,0.38411 -1.903934,-0.16637 -3.834172,-0.55359 -5.743944,-0.28397 -0.911495,0.12612 -1.390268,1.45146 -0.58556,2.01574 1.37101,0.85142 3.058632,0.85992 4.611657,1.07483 3.12175,0.0891 6.322321,0.22101 9.363167,-0.62397 2.140217,-0.55903 4.166771,-1.95585 5.004878,-4.06537 0.746051,-1.78739 0.594707,-3.79106 0.441939,-5.67713 -0.08496,-1.51323 -0.785979,-2.98552 -2.00733,-3.90565 -3.327995,-2.50522 -7.385347,-3.95664 -10.436895,-6.84526 -1.160114,-1.10845 -2.335191,-2.67963 -1.884433,-4.37848 0.384555,-1.20479 1.273807,-2.27119 2.382057,-2.87748 1.338163,-0.59659 2.774767,-0.3863 4.17794,-0.36681 2.002433,0.0544 4.045463,0.36348 6.026663,-0.0494 0.776069,-0.1204 1.358523,-1.11708 0.75584,-1.75346 -0.925975,-0.81422 -2.226195,-0.97216 -3.385622,-1.25431 -1.549206,-0.30153 -3.126963,-0.46833 -4.705984,-0.46187 z"
     id="path2877" />
  <path
     style="fill:#FFFFFF;stroke-width:0.0613412"
     d="m 308.99142,193.41188 c -0.64702,0.0192 -1.53988,0.0394 -1.80238,0.76413 -0.24383,0.79043 0.50795,1.3961 1.00473,1.88894 1.4122,1.32792 3.11502,2.48582 3.92838,4.3143 0.7122,1.4535 0.42904,3.24241 -0.51941,4.52142 -1.02564,1.56869 -2.61709,2.59934 -4.02593,3.77965 -0.49142,0.42626 -1.04372,0.75841 -1.49167,1.22169 -0.37774,0.64423 0.24194,1.2659 0.5234,1.81013 1.79236,2.82429 3.53442,5.68591 5.48565,8.40487 1.1786,1.52405 2.32192,3.1418 3.90774,4.27376 0.55484,0.39321 1.22264,0.6432 1.90953,0.53525 0.64417,0.0139 1.46437,-0.21454 1.58897,-0.95038 0.1556,-1.02229 -0.56274,-1.88875 -1.03334,-2.72703 -1.4885,-2.40457 -3.22401,-4.65637 -4.5792,-7.14223 -0.58626,-1.0682 -0.96297,-2.40078 -0.41049,-3.56388 0.8628,-1.7838 2.44551,-3.09925 3.2979,-4.89348 0.795,-1.49892 1.24254,-3.18354 1.20856,-4.88469 0.0313,-1.37523 -0.0671,-2.87827 -0.98249,-3.98491 -1.04052,-1.2447 -2.59589,-1.89185 -4.06431,-2.48483 -1.26513,-0.45279 -2.58848,-0.88156 -3.94564,-0.88271 z"
     id="path2916" />
  <path
     style="fill:#FFFFFF;stroke-width:0.0613412"
     d="m 299.17658,193.42829 c -0.87398,0.0329 -1.93218,-0.0184 -2.5695,0.68877 -0.38796,0.696 -0.21877,1.5422 -0.27735,2.3057 -0.0314,6.32934 -0.0422,12.65978 0.0643,18.98845 0.0928,2.43658 0.0769,4.89441 0.49858,7.30309 0.1827,0.86525 0.51247,1.9466 1.48972,2.17774 0.923,0.229 1.87071,-0.41781 2.15329,-1.29499 0.50323,-1.33709 0.39384,-2.80134 0.47511,-4.20321 0.0724,-1.39368 -0.023,-2.81545 0.40308,-4.16628 0.4521,-1.41918 1.84389,-2.1549 2.84222,-3.14512 0.53699,-0.4651 1.12095,-1.12548 0.87552,-1.89469 -0.25886,-0.78536 -1.12988,-1.0738 -1.71049,-1.57666 -0.86696,-0.57406 -1.13931,-1.63755 -1.24564,-2.61044 -0.26412,-2.34703 -0.2084,-4.78632 0.12927,-7.08675 0.13575,-0.58989 0.14858,-1.28832 0.57532,-1.75482 0.69532,-0.54984 1.29643,-1.46734 1.06784,-2.38392 -0.33168,-0.82429 -1.329,-0.98449 -2.0989,-1.1487 -0.88137,-0.15411 -1.77863,-0.20471 -2.67242,-0.19817 z"
     id="path2955" />
  <path
     style="fill:#FFFFFF;stroke-width:0.0613412"
     d="m 334.35016,212.53753 c -1.16654,0.1175 -2.15898,0.8402 -3.11055,1.46824 -1.33401,0.90753 -2.2459,2.34953 -2.57111,3.92256 -0.3032,1.55299 -0.26184,3.26437 0.55344,4.66437 0.46917,0.90626 1.33577,1.53272 2.29778,1.83101 1.11743,0.42412 2.31759,0.55141 3.50578,0.49566 0.65982,-0.0628 1.41306,0.099 1.99205,-0.2933 1.04284,-1.01496 -0.42362,-2.14711 -1.09725,-2.86297 -0.98042,-0.9634 -1.909,-2.18844 -1.83104,-3.63667 0.0435,-1.50711 1.01815,-2.71687 1.41213,-4.12402 0.22729,-0.68299 -0.29706,-1.47821 -1.03274,-1.4638 -0.0395,-0.002 -0.079,-0.002 -0.11849,-7.5e-4 z"
     id="path2994" />
  <path
     style="fill:#FFFFFF;stroke-width:0.0613412"
     d="m 343.4579,201.43201 c -0.62991,-0.006 -1.47957,7.5e-4 -1.73984,0.70878 -0.21408,0.75063 0.46517,1.34427 0.86836,1.88905 0.72952,0.79638 1.36229,1.71106 1.61141,2.77768 0.23862,0.94343 0.39432,2.05981 -0.16462,2.92042 -0.46603,0.48381 -1.12698,0.96941 -1.05382,1.72977 0.0934,1.18026 1.07763,1.96296 1.69515,2.88519 0.79663,1.20054 0.51816,2.70696 0.24599,4.02346 -0.12985,0.98838 -0.15658,2.00962 0.0221,2.99317 0.29002,1.3862 1.05853,2.78944 2.40524,3.38359 0.57399,0.26127 1.41888,0.34366 1.77363,-0.3006 0.47456,-0.9555 0.47611,-2.06098 0.60846,-3.10013 0.36079,-4.57142 0.36314,-9.16801 0.14764,-13.74679 -0.12241,-1.47087 -0.16034,-3.11258 -1.16434,-4.29615 -0.91658,-0.99559 -2.2994,-1.31833 -3.55426,-1.66839 -0.55685,-0.13164 -1.12839,-0.20427 -1.70102,-0.19905 z"
     id="path3033" />
  <path
     style="fill:#FFFFFF;stroke-width:0.0613412"
     d="m 364.75218,201.43297 c -0.89314,-0.0327 -1.52912,0.75783 -1.71552,1.56144 -0.51487,2.00697 -0.44239,4.10248 -0.50611,6.1576 -0.0167,3.92942 -0.085,7.86403 0.13626,11.78915 0.12019,1.14399 0.12483,2.40554 0.82116,3.37749 0.56362,0.79377 1.82065,0.80986 2.4394,0.076 0.68872,-0.79616 0.7052,-1.91805 0.84836,-2.91024 0.27991,-2.89117 0.17671,-5.80106 0.20936,-8.70135 -0.0461,-3.00834 0.10141,-6.03976 -0.35746,-9.02437 -0.15645,-1.02749 -0.6022,-2.36409 -1.87545,-2.32568 z"
     id="path3072" />
  <path
     style="fill:#FFFFFF;stroke-width:0.0613412"
     d="m 364.12163,190.43407 c -0.82615,-0.0342 -1.81245,0.2375 -2.14945,1.07539 -0.2964,0.8588 0.47905,1.65407 1.20959,1.98011 1.0286,0.57684 2.48645,0.67247 3.35685,-0.24183 0.58761,-0.53315 0.63475,-1.53437 0.0163,-2.06559 -0.64218,-0.61251 -1.57686,-0.77376 -2.43329,-0.74808 z"
     id="path3111" />
  <path
     style="fill:#FFFFFF;stroke-width:0.0613412"
     d="m 380.69384,191.42632 c -0.92157,0.001 -1.47528,0.89499 -1.64615,1.70317 -0.47653,2.16867 -0.433,4.40813 -0.50511,6.61599 -0.091,6.35074 -0.11068,12.70448 0.0557,19.0541 0.0873,1.62975 0.10176,3.29803 0.58639,4.86996 0.20997,0.75168 0.91854,1.38404 1.73489,1.26384 0.95695,-0.09 1.41057,-1.07846 1.57089,-1.9125 0.4776,-2.52881 0.41041,-5.1188 0.48033,-7.68075 0.0622,-6.09222 0.0894,-12.18735 -0.0951,-18.27773 -0.10092,-1.49523 -0.0981,-3.04025 -0.60551,-4.46809 -0.23695,-0.65953 -0.83911,-1.21684 -1.5763,-1.16799 z"
     id="path3150" />
  <path
     style="fill:#FFFFFF;stroke-width:0.0613412"
     d="m 400.04952,201.43177 c -1.42977,0.003 -2.6145,0.98192 -3.55603,1.95936 -0.96678,1.09028 -1.8548,2.39013 -2.00422,3.87645 -0.0472,1.25983 0.84663,2.29103 1.63669,3.17321 1.35623,1.39351 2.93436,2.65198 4.78138,3.31602 0.73988,0.18918 1.5467,0.21687 2.17559,0.70893 1.56975,1.06258 2.98399,2.39266 4.05342,3.96259 0.19351,0.3166 0.48948,0.72546 0.18219,1.0744 -1.21074,2.0019 -3.16461,3.37709 -4.76433,5.03864 -0.4274,0.50565 0.0394,1.36084 0.69832,1.25169 1.79149,-0.4638 3.56462,-1.02006 5.33041,-1.57896 1.24892,-0.43773 2.58266,-1.13693 3.06595,-2.45633 0.41551,-1.12471 0.27534,-2.35478 0.32444,-3.52988 0.0427,-1.25093 -0.24425,-2.57894 -1.15021,-3.49766 -1.47667,-1.5045 -3.46544,-2.33529 -5.24618,-3.39591 -1.7224,-0.99572 -3.52379,-1.99475 -4.82319,-3.53744 -0.56834,-0.65764 -0.84812,-1.60879 -0.4618,-2.42827 0.37331,-0.94666 1.18235,-1.7448 1.24462,-2.79651 -0.0117,-0.78366 -0.77624,-1.20028 -1.48705,-1.14033 z"
     id="path3189" />
  <path
     style="fill:#FFFFFF;stroke-width:0.0216874"
     d="m 359.58583,157.42519 c -0.5283,0.026 -0.99014,0.45369 -1.07637,0.97293 -0.1315,0.72117 0.11016,1.46588 0.49489,2.07319 0.22086,0.34748 0.52556,0.6334 0.86117,0.86719 0.22887,0.34821 0.30602,0.77137 0.3969,1.17204 0.10126,0.52945 0.17838,1.05849 0.19471,1.6039 0.0423,1.02993 0.016,2.08407 0.10302,3.12011 0.046,0.47859 0.18196,1.02219 0.6297,1.27969 0.38436,0.24871 0.88155,0.13191 1.23525,-0.11493 0.59535,-0.41186 1.12817,-0.91809 1.57462,-1.48776 0.36776,-0.46498 0.58452,-1.05551 0.53897,-1.65216 -0.0544,-0.87256 -0.49601,-1.65339 -0.88899,-2.41312 -0.86126,-1.58497 -1.76948,-3.15417 -2.87221,-4.58565 -0.30888,-0.36905 -0.64673,-0.86631 -1.19166,-0.83543 z"
     id="path3228" />
  <path
     style="fill:#FFFFFF;stroke-width:0.0433748"
     d="m 335.25154,175.414 c -1.10417,-0.0154 -2.04288,1.17636 -1.6895,2.24186 0.29665,1.03867 1.66395,1.65166 2.58987,1.02015 0.74184,-0.44205 1.0532,-1.4382 0.6984,-2.22499 -0.26156,-0.62986 -0.918,-1.05185 -1.59877,-1.03702 z"
     id="path3267" />
  <path
     style="fill:#FFFFFF;stroke-width:0.0433748"
     d="m 323.94333,176.5027 c -0.64828,0.0393 -1.44026,-0.0312 -1.90807,0.51168 -0.38445,0.44468 -0.15463,1.16344 0.36437,1.38885 0.75241,0.43213 1.69299,0.52206 2.51947,0.25287 0.54099,-0.19469 1.07205,-0.76532 0.84428,-1.37469 -0.27862,-0.69372 -1.17254,-0.79374 -1.82005,-0.77871 z"
     id="path3306" />
  <path
     style="fill:#FFFFFF;stroke-width:0.0153353"
     d="m 279.29405,146.3572 c -0.39257,0.0233 -0.72201,0.38174 -0.71483,0.77455 0.007,0.3695 0.2025,0.69893 0.35121,1.02691 0.27221,0.54303 0.53984,1.09392 0.9153,1.57522 0.84061,1.11465 1.77646,2.15343 2.72309,3.17813 1.30546,1.39575 2.65868,2.74642 4.05018,4.05633 1.13504,1.07326 2.26977,2.1474 3.41044,3.21436 0.22251,0.2024 0.54796,0.21195 0.82868,0.16335 0.38771,-0.0803 0.65665,-0.5061 0.55797,-0.8901 -0.0613,-0.30192 -0.33019,-0.48937 -0.51365,-0.717 -2.15668,-2.37782 -4.31712,-4.75225 -6.45868,-7.14371 -1.36612,-1.51851 -2.75059,-3.02045 -4.11435,-4.54106 -0.19803,-0.20752 -0.35838,-0.46496 -0.61304,-0.60865 -0.12987,-0.0683 -0.27605,-0.098 -0.42232,-0.0883 z"
     id="path3345" />
  <path
     style="fill:#FFFFFF;stroke-width:0.0613412"
     d="m 260.40783,109.96897 c -0.70973,-0.0488 -1.15604,0.81446 -0.79336,1.39743 0.5475,0.91067 1.40136,1.59695 2.23524,2.23659 1.38599,0.94278 2.76702,1.93539 3.82302,3.25572 1.81749,2.16288 2.86798,4.99965 2.79417,7.81706 0.0499,1.18715 -0.0611,2.38948 0.099,3.56749 0.19103,0.58815 1.01547,0.65892 1.37623,0.19098 1.83842,-1.73582 3.67482,-3.47713 5.44475,-5.28254 0.34315,-0.43013 0.0831,-0.97768 -0.27303,-1.3031 -1.01987,-1.26072 -2.22886,-2.35255 -3.05534,-3.75971 -0.6836,-1.17775 -1.01162,-2.52606 -1.03932,-3.88175 -0.0713,-1.12519 -0.0493,-2.4061 -0.83805,-3.30476 -0.54097,-0.58706 -1.48044,-0.55484 -2.07255,-0.0655 -0.80275,0.55182 -1.37356,1.37992 -2.15724,1.94519 -0.86398,-0.14984 -1.52485,-0.80798 -2.25762,-1.24281 -0.95298,-0.60828 -1.89754,-1.3528 -3.0357,-1.55732 -0.0832,-0.008 -0.1666,-0.0138 -0.25016,-0.013 z"
     id="path3384" />
  <path
     style="fill:#FFFFFF;stroke-width:0.0108437"
     d="m 267.61304,52.735366 c -0.45076,-7.5e-4 -0.86991,0.252008 -1.14063,0.602257 -0.24516,0.315671 -0.42102,0.684825 -0.52597,1.069813 -0.16521,0.668368 -0.0849,1.366863 0.0363,2.035458 0.19116,0.974431 0.51231,1.921824 0.92641,2.823559 0.18347,0.37829 0.37328,0.754541 0.51558,1.150981 0.1585,0.424406 0.29094,0.872035 0.40502,1.302004 0.25374,0.971328 0.43564,1.96121 0.55159,2.958298 0.0318,0.275016 0.0597,0.581493 0.079,0.871605 0.0113,0.161655 0.0207,0.347298 0.0244,0.518698 0.0123,0.448324 6.1e-4,0.897487 0.0231,1.345357 0.0226,0.30396 0.23931,0.585288 0.53529,0.667808 0.20689,0.05944 0.42561,0.02324 0.63788,0.03325 0.74764,-0.0016 1.49551,0.0031 2.24302,-0.0024 0.35122,-0.0075 0.66757,-0.295958 0.70909,-0.644548 0.035,-0.205529 -0.0439,-0.405854 -0.14224,-0.582455 -0.22497,-0.437898 -0.42505,-0.888847 -0.58069,-1.356268 -0.39174,-1.156521 -0.65218,-2.356086 -0.80476,-3.566945 -0.0713,-0.556147 -0.10029,-1.116562 -0.10939,-1.676901 -0.007,-0.478647 -0.0277,-0.971749 -0.0843,-1.452969 -0.14215,-1.256706 -0.42965,-2.502954 -0.91415,-3.673308 -0.28457,-0.667632 -0.63066,-1.327485 -1.14811,-1.845747 -0.29778,-0.292443 -0.67236,-0.53761 -1.09835,-0.571954 -0.0458,-0.0042 -0.0919,-0.0061 -0.13792,-0.0056 z"
     id="path3423" />
  <path
     style="fill:#FFFFFF;stroke-width:0.0613412"
     d="m 270.743,67.318461 c -0.61694,0.06022 -1.29033,-0.106623 -1.866,0.143089 -0.56841,0.388586 -0.28315,1.136834 -0.28917,1.710575 0.11848,1.058175 0.24518,2.285593 1.11201,3.017454 0.69,0.554157 1.64275,0.23361 2.26905,-0.257583 0.80669,-0.538407 1.58808,-1.415016 1.42316,-2.458205 -0.087,-0.684872 -0.26489,-1.389449 -0.64576,-1.969869 -0.52624,-0.373628 -1.20971,-0.129047 -1.81008,-0.187743 -0.0644,7.5e-4 -0.12881,0.0015 -0.19321,0.0022 z"
     id="path3462" />
  <path
     style="fill:#FFFFFF;stroke-width:0.0613412"
     d="m 284.41263,80.835703 c -0.78496,-0.01297 -1.47319,0.694245 -1.40031,1.48716 0.007,1.127655 0.65531,2.092583 1.17088,3.046703 1.117,2.645737 1.6312,5.485537 2.02875,8.317837 0.20081,1.003575 0.25565,2.08884 0.79474,2.984528 0.32508,0.566542 1.16045,0.646702 1.58937,0.156105 0.80994,-0.81468 1.2605,-2.01 1.16536,-3.157635 -0.16628,-1.32345 -1.13518,-2.36736 -1.37287,-3.674723 -0.44022,-1.469137 -0.29468,-2.945422 -0.58443,-4.440067 -0.34839,-1.515945 -0.93499,-3.06726 -2.07912,-4.16472 -0.35913,-0.321863 -0.81792,-0.57081 -1.31237,-0.555188 z"
     id="path3501" />
  <path
     style="fill:#FFFFFF;stroke-width:0.0613412"
     d="m 285.35156,116.04379 c -0.65587,0.0853 -0.77967,0.8234 -0.78168,1.36353 -0.0224,0.19234 -0.25364,-0.28659 -0.3651,-0.32649 -0.32987,-0.46785 -1.09911,-0.5934 -1.44237,-0.0719 -0.38904,0.68055 -0.0346,1.49299 0.0503,2.2023 -0.0336,0.19262 0.24829,0.68739 -0.0779,0.64839 -1.11482,0.16804 -1.85026,1.16155 -2.43257,2.0402 -0.54942,0.74933 -1.29166,1.51408 -2.28256,1.55449 -0.78427,0.0784 -1.46341,0.78722 -1.35742,1.59979 0.14936,1.17667 1.09883,2.04164 1.98041,2.73855 1.30677,0.89555 2.81146,1.49155 4.00863,2.55117 1.39227,1.16929 2.67893,2.73493 2.78779,4.6248 0.12221,1.15837 -0.0772,2.47282 0.67547,3.45895 0.48342,0.56028 1.35167,0.45922 1.87251,0.008 1.03597,-0.81491 1.94463,-1.91174 2.26695,-3.21373 0.25923,-0.97849 -0.12371,-1.95545 -0.54972,-2.82349 -0.63841,-1.23996 -1.06371,-2.57112 -1.36412,-3.92993 -0.72336,-2.96768 -1.06924,-6.0228 -1.50769,-9.07153 -0.18222,-0.9756 -0.24759,-1.99921 -0.65179,-2.91552 -0.15912,-0.29568 -0.49268,-0.48105 -0.82919,-0.43801 z"
     id="path3540" />
  <path
     style="fill:#FFFFFF;stroke-width:0.0613412"
     d="m 302.41988,137.9504 c -1.13187,0.0261 -1.75548,1.30556 -1.61751,2.31539 0.0641,0.84859 0.61041,1.52675 1.10713,2.17163 0.61378,0.93178 0.4815,2.08349 0.73922,3.12001 0.16804,0.83385 1.03562,1.48056 1.88444,1.24504 0.99472,-0.22747 1.65166,-1.08722 2.32306,-1.78705 0.68349,-0.69592 1.03786,-1.80717 0.58167,-2.71698 -0.65409,-1.25732 -1.75079,-2.20355 -2.75844,-3.1713 -0.64368,-0.54381 -1.36821,-1.17129 -2.25957,-1.17674 z"
     id="path3579" />
  <path
     style="fill:#FFFFFF;stroke-width:0.0613412"
     d="m 296.78188,133.52281 c -0.56921,-0.0663 -1.245,0.31844 -1.17411,0.96097 0.1267,0.74014 0.8566,1.14608 1.36855,1.61696 0.96369,0.72 1.97235,1.48447 3.16686,1.75405 0.83827,0.25067 1.77347,-0.44105 1.74643,-1.31991 0.0659,-0.77401 -0.37279,-1.49045 -1.01053,-1.90126 -1.18497,-0.84552 -2.67211,-1.09118 -4.0972,-1.11081 z"
     id="path3618" />
  <path
     style="fill:#FFFFFF;stroke-width:0.0613412"
     d="m 320.32805,147.01477 c -0.8381,-0.0976 -1.48823,0.81238 -1.24012,1.58673 0.28903,1.0946 1.10913,2.27532 2.34954,2.30292 0.93769,-0.081 1.84351,-0.82939 2.02162,-1.76631 0.089,-0.99706 -0.88671,-1.66122 -1.72965,-1.92219 -0.45129,-0.14682 -0.9271,-0.21401 -1.40139,-0.20115 z"
     id="path3657" />
  <path
     style="fill:#FFFFFF;stroke-width:0.0433748"
     d="m 332.85338,144.00513 c -1.39121,0.0455 -2.56313,0.93731 -3.57452,1.80751 -0.38032,0.31382 -0.79278,0.7818 -0.59716,1.31226 0.21058,0.62808 0.95534,0.71225 1.5215,0.75372 0.95671,0.0432 1.92526,0.0577 2.87485,-0.0802 0.69261,-0.17008 1.52529,-0.39507 1.83479,-1.11309 0.23216,-0.73394 -0.042,-1.57647 -0.55514,-2.12859 -0.39355,-0.39096 -0.95794,-0.56448 -1.50432,-0.55159 z"
     id="path3696" />
  <path
     style="fill:#FFFFFF;stroke-width:0.0867495"
     d="m 383.29025,165.56047 c -1.19205,0.1489 -2.43456,0.32687 -3.51099,0.88884 -0.72238,0.36951 -0.742,1.42675 -0.0957,1.88037 1.32125,0.99808 2.95724,1.44606 4.46094,2.09478 1.41555,0.48524 2.8038,1.20379 4.31721,1.30133 0.77604,0.0417 1.20067,-0.95475 0.67587,-1.511 -1.26244,-1.56032 -2.78487,-2.9068 -4.37798,-4.12163 -0.4267,-0.31634 -0.92349,-0.56613 -1.46932,-0.53269 z"
     id="path3735" />
  <path
     style="fill:#FFFFFF;stroke-width:0.0867495"
     d="m 408.91562,163.50626 c -0.91054,0.22218 -1.4164,1.13605 -2.01778,1.78142 -0.95694,1.26015 -2.00975,2.49303 -2.66738,3.94236 -0.29368,0.70221 0.50202,1.49285 1.18552,1.09878 1.32143,-0.72582 2.20683,-2.01938 3.0872,-3.20451 0.55364,-0.87109 1.18443,-1.79278 1.29942,-2.8395 -0.01,-0.45438 -0.43266,-0.83291 -0.88698,-0.77855 z"
     id="path3774" />
  <path
     style="fill:#FFFFFF;stroke-width:0.0216874"
     d="m 296.92446,100.52044 c -0.37432,0.0354 -0.70986,0.22983 -1.05811,0.35729 -0.4166,0.18854 -0.85795,0.33651 -1.24173,0.58878 -0.55743,0.39871 -0.90672,1.16326 -0.64541,1.83038 0.0343,0.11048 0.13132,0.21677 0.0493,0.32917 -0.26304,0.58713 -0.80247,0.96647 -1.22933,1.42425 -0.53418,0.60127 -1.02147,1.27996 -1.24266,2.06297 -0.12784,0.43967 -0.0537,0.98412 0.33853,1.26842 0.36421,0.28293 0.87997,0.23659 1.26055,0.012 0.67436,-0.38633 1.18336,-0.99169 1.69692,-1.56207 0.38334,-0.41386 0.76839,-0.86067 1.2864,-1.10737 0.097,-0.0455 0.12813,0.13197 0.20497,0.17714 0.44552,0.53264 1.19173,0.75575 1.86422,0.62686 0.43563,-0.0928 0.79263,-0.44761 1.25588,-0.42383 0.33568,-0.0207 0.67259,0.0174 0.9889,0.135 0.93216,0.31737 1.78146,0.97928 2.19619,1.88649 0.2248,0.52588 0.2273,1.12574 0.49859,1.633 0.23037,0.39261 0.81945,0.50087 1.16301,0.19502 0.26591,-0.2046 0.30537,-0.5616 0.28379,-0.87342 -0.0117,-0.77793 -0.17793,-1.55028 -0.0614,-2.32831 0.0445,-0.28274 0.0927,-0.58832 0.25424,-0.82586 0.44383,-0.044 0.86153,-0.40945 0.86402,-0.87356 0.009,-0.52595 -0.39301,-0.93238 -0.75724,-1.26041 -0.50664,-0.43343 -1.07935,-0.78065 -1.63121,-1.15205 -0.68671,-0.42861 -1.47175,-0.76077 -2.29628,-0.7267 -0.69217,-0.0115 -1.34142,0.26681 -1.94567,0.57639 -0.0626,0.008 -0.19315,0.14247 -0.22494,0.0584 -0.19221,-0.46893 -0.50051,-0.87884 -0.77896,-1.29896 -0.2533,-0.36816 -0.60319,-0.75452 -1.09251,-0.72898 z"
     id="path3813" />
  <path
     style="fill:#FFFFFF;stroke-width:0.0433748"
     d="m 299.6647,95.432031 c -0.71141,0.05055 -1.02458,0.82338 -1.10351,1.436715 -0.0455,0.303705 -0.063,0.610687 -0.0801,0.917047 -0.72424,-0.530857 -1.41354,-1.250212 -2.34664,-1.366222 -0.55864,-0.08729 -1.11156,0.381735 -1.08658,0.952545 0.0412,0.846615 0.59741,1.55511 1.10174,2.19543 0.92401,1.095164 2.01955,2.019554 3.0636,2.991254 0.47716,0.45858 1.42058,0.34617 1.69297,-0.28423 0.20815,-0.62477 0.0786,-1.30064 0.10519,-1.94683 -0.0429,-1.271604 0.0377,-2.565864 -0.24585,-3.815229 -0.10764,-0.542258 -0.47646,-1.120508 -1.10086,-1.08048 z"
     id="path3852" />
  <path
     style="fill:#FFFFFF;stroke-width:0.122683"
     d="m 180.55421,109.88474 c -1.13364,0.17611 -1.39532,1.53464 -1.66244,2.46563 -0.53127,1.95749 -0.16,4.20776 -1.53137,5.87654 -0.84398,1.282 -2.14037,2.23691 -2.87106,3.58535 -0.0343,0.95846 1.01138,1.48328 1.50316,2.20556 1.26547,1.30957 2.40939,2.76942 3.79974,3.94174 0.81587,0.299 1.20809,-0.59598 1.12425,-1.26014 0.21612,-2.20683 -0.11455,-4.50926 0.58277,-6.64497 0.99374,-2.18836 2.97864,-3.68895 4.66648,-5.32208 0.93936,-0.89024 2.02838,-1.58908 3.1725,-2.17497 0.76989,-0.55031 1.04261,-2.17533 -0.12843,-2.42274 -1.82859,-0.15846 -3.34478,1.14523 -4.92384,1.85868 -0.39406,0.13392 -1.0551,0.66437 -1.33872,0.0695 -0.74415,-0.69264 -1.18482,-1.90704 -2.26436,-2.17377 -0.0427,-0.005 -0.0858,-0.006 -0.12868,-0.005 z"
     id="path3891" />
  <path
     style="fill:#FFFFFF;stroke-width:0.122683"
     d="m 182.13974,52.918601 c -1.7774,0.113266 -2.721,1.981183 -3.12372,3.502797 -0.75681,2.979368 -0.34695,6.121969 -1.42145,9.02938 -0.48936,1.659943 -1.87966,3.35014 -1.15885,5.175318 0.53772,0.990801 1.41912,2.052334 2.60174,2.210921 1.25416,0.02592 1.67656,-1.402133 1.7626,-2.422501 0.38397,-3.367186 0.20205,-6.77402 1.38733,-10.015722 0.60335,-1.94144 2.06249,-3.659662 2.06288,-5.759284 -0.001,-1.070109 -1.14542,-1.735117 -2.11053,-1.720909 z"
     id="path3930" />
  <path
     style="fill:#FFFFFF;stroke-width:0.122683"
     d="m 164.73512,80.833663 c -1.65684,0.180413 -2.36997,1.98699 -2.80218,3.36954 -0.83689,2.944448 -1.10314,6.007223 -1.59834,9.017798 -0.18401,1.168057 -0.0277,2.801805 1.24911,3.2808 1.1086,0.254865 1.61019,-1.031003 1.77147,-1.8987 0.69176,-3.286785 0.47678,-6.835703 2.13982,-9.86439 0.51997,-1.014435 1.36807,-2.408123 0.45089,-3.44115 -0.31758,-0.30591 -0.77242,-0.46821 -1.21077,-0.463898 z"
     id="path3969" />
  <path
     style="fill:#FFFFFF;stroke-width:0.122683"
     d="m 163.39568,114.5426 c -1.04188,0.27632 -0.84596,1.60762 -0.98362,2.43185 -0.42543,4.75987 -0.21345,9.6569 -1.64975,14.26663 -0.51361,1.35438 -1.89989,2.5449 -1.4499,4.13478 0.45121,1.32549 1.35464,2.64111 2.65637,3.23863 1.04536,0.41652 1.94138,-0.61825 2.07553,-1.57666 0.36898,-1.7453 0.19082,-3.66898 1.27926,-5.19795 0.87251,-1.41309 2.12178,-2.82346 3.877,-2.99614 1.55591,-0.45529 3.03126,-1.64148 3.50915,-3.22401 0.16221,-1.40029 -1.35082,-2.07807 -2.16324,-2.94318 -1.49665,-1.24597 -2.4364,-2.96641 -3.31817,-4.66506 -0.39469,-0.79458 -1.29547,-1.32663 -2.17306,-1.08137 -0.69278,-0.69227 -0.30998,-2.43959 -1.65957,-2.38752 z"
     id="path4008" />
  <path
     style="fill:#FFFFFF;stroke-width:0.122683"
     d="m 172.39487,127.40773 c -1.46182,0.12837 -2.71358,1.53897 -2.80253,2.97697 -0.005,0.97453 1.21408,1.56439 1.97442,0.93665 0.97745,-0.69093 2.06567,-1.72043 2.0293,-3.00955 -0.0612,-0.5937 -0.63019,-0.96629 -1.20119,-0.90407 z"
     id="path4047" />
  <path
     style="fill:#FFFFFF;stroke-width:0.0433748"
     d="m 423.16967,142.43821 c -0.94227,0.0379 -1.56978,0.89609 -1.86568,1.70964 -0.44952,1.26384 -0.52541,2.6815 -0.14905,3.97357 0.26655,0.85042 0.88273,1.54091 1.52676,2.13257 0.42396,0.36704 1.1063,0.44073 1.53252,0.0362 0.56379,-0.51886 0.92074,-1.22827 1.19848,-1.93263 0.33253,-1.11551 0.35779,-2.33954 0.0262,-3.45821 -0.30018,-0.80694 -0.69171,-1.63805 -1.37334,-2.19161 -0.25845,-0.18503 -0.57808,-0.282 -0.89587,-0.26958 z"
     id="path4086" />
  <path
     style="fill:#FFFFFF;stroke-width:0.0433748"
     d="m 424.83959,122.78764 c -0.66641,0.0399 -0.9639,0.74255 -1.14612,1.28897 -0.53057,1.54345 -0.6684,3.18451 -1.12388,4.74673 -0.10408,0.30547 -0.20501,0.63946 -0.38153,0.89936 -0.48417,-0.16973 -1.17365,-0.19774 -1.43459,0.33624 -0.16475,0.44794 -0.002,0.92194 0.22737,1.31167 0.1146,1.18277 -0.15415,2.36229 -0.33869,3.52556 -0.60688,3.26713 -1.46026,6.45847 -2.39667,9.66148 -0.15421,0.60773 -0.40555,1.205 -0.44048,1.83479 -0.0187,0.57886 0.64831,1.02959 1.16849,0.74593 0.52659,-0.31074 0.79362,-0.90156 1.11333,-1.39902 0.86357,-1.57112 1.34494,-3.31299 1.89071,-5.01075 1.4953,-4.87348 2.75054,-9.82782 3.58343,-14.85948 0.0942,-0.78537 0.29403,-1.58757 0.15232,-2.37782 -0.0873,-0.40008 -0.45308,-0.72701 -0.87369,-0.70366 z"
     id="path4201" />
  <path
     style="fill:#FFFFFF;stroke-width:0.0867495"
     d="m 406.43072,88.696221 c -0.97468,0.168397 -1.05972,1.388595 -0.85322,2.163712 0.36149,1.222065 1.43182,2.101433 2.50196,2.71155 0.72628,0.415283 1.92395,0.570488 2.35892,-0.318262 0.2636,-0.843863 -0.51522,-1.545773 -0.99413,-2.148 -0.81921,-0.83004 -1.54284,-1.846058 -2.6196,-2.355285 -0.12587,-0.04755 -0.26025,-0.06278 -0.39393,-0.0537 z"
     id="path4240" />
  <path
     style="fill:#FFFFFF;stroke-width:0.0867495"
     d="m 378.14135,62.769435 c -0.71889,0.126693 -0.78122,1.023567 -0.3924,1.514899 1.38699,2.302157 2.50239,4.758716 3.93583,7.032656 0.81334,1.221068 1.93417,2.626525 3.54191,2.619936 0.72931,0.04429 1.73764,-0.277498 1.69739,-1.168748 -0.14447,-1.090282 -1.0628,-1.863133 -1.69925,-2.693644 -2.08452,-2.301237 -4.16582,-4.605759 -6.21396,-6.939449 -0.2171,-0.248954 -0.52821,-0.430858 -0.86952,-0.36565 z"
     id="path4279" />
  <path
     style="fill:#FFFFFF;stroke-width:0.00292969"
     d="m 377.53448,61.915341 c -0.22069,0.0096 -0.4344,0.121894 -0.56605,0.299502 -0.12486,0.163735 -0.17616,0.38011 -0.14038,0.582659 0.0231,0.147949 0.0978,0.280948 0.18171,0.402642 0.0634,0.0905 0.12403,0.183722 0.19814,0.266037 0.14466,0.155689 0.35746,0.244737 0.56994,0.237581 0.17474,-0.0043 0.34516,-0.07376 0.47708,-0.187696 0.10425,-0.08335 0.19384,-0.187684 0.24645,-0.311298 0.0929,-0.209254 0.0817,-0.460892 -0.0298,-0.660939 -0.0638,-0.118887 -0.1646,-0.210995 -0.25593,-0.308214 -0.0989,-0.10229 -0.20725,-0.200093 -0.33963,-0.256534 -0.10732,-0.04715 -0.2245,-0.06868 -0.34158,-0.06374 z"
     id="path4318" />
  <path
     style="fill:#FFFFFF;stroke-width:0.00828638"
     d="m 350.1341,54.955197 c -0.31639,-4.53e-4 -0.63758,0.126612 -0.84272,0.372441 -0.19822,0.226817 -0.28626,0.535544 -0.26338,0.833625 0.0161,0.376649 0.14974,0.736232 0.30079,1.077479 0.27768,0.593039 0.73361,1.115167 1.31814,1.419831 0.24074,0.123877 0.50494,0.209353 0.77586,0.227731 0.241,0.0079 0.4892,-0.01046 0.7103,-0.11487 0.41746,-0.180996 0.71808,-0.580275 0.81357,-1.020925 0.0718,-0.343878 0.0767,-0.717707 -0.0743,-1.042042 -0.18301,-0.427069 -0.52439,-0.760849 -0.88902,-1.037313 -0.42465,-0.311874 -0.90675,-0.556408 -1.42309,-0.671078 -0.14,-0.02942 -0.28294,-0.04709 -0.42617,-0.04488 z"
     id="path4357" />
  <path
     style="fill:#FFFFFF;stroke-width:0.0234375"
     d="m 315.8451,63.95941 c -0.55239,0.02284 -0.96631,0.446837 -1.34675,0.800389 -1.06946,1.062 -1.97681,2.270656 -2.91756,3.444256 -0.41218,0.548365 -0.85865,1.093497 -1.10503,1.741256 -0.17167,0.429078 -0.0652,0.985329 0.34625,1.237839 0.42675,0.269446 0.9576,0.150871 1.41751,0.04784 0.89088,-0.237235 1.62738,-0.843741 2.26196,-1.488869 0.6242,-0.639668 1.11606,-1.401467 1.45546,-2.227632 0.31635,-0.739875 0.66359,-1.482634 0.79838,-2.281805 0.0786,-0.431743 -0.056,-0.941936 -0.46638,-1.160123 -0.13443,-0.07623 -0.28947,-0.114723 -0.44384,-0.113146 z"
     id="path4396" />
  <path
     style="fill:#FFFFFF;stroke-width:0.132583"
     d="m 26.404508,138.7445 c -0.789191,0.61791 -0.80794,1.79032 -1.201689,2.65997 -0.768381,2.43876 -1.717551,5.18985 -0.649287,7.68535 0.524406,1.2165 2.208136,1.10126 3.01444,0.24341 1.324189,-1.20554 0.890988,-3.19362 0.815175,-4.77167 -0.249049,-1.84004 -0.427378,-3.725 -0.997735,-5.4957 -0.209787,-0.34217 -0.613421,-0.43484 -0.980904,-0.32136 z"
     id="path4435" />
  <path
     style="fill:#FFFFFF;stroke-width:0.0331456"
     d="m 25.851261,128.37089 c -0.485163,7.5e-4 -0.851605,0.47742 -0.799574,0.94607 0.01897,1.35834 0.403741,2.67509 0.709823,3.98859 0.914134,3.58885 1.985717,7.13787 3.194111,10.63848 0.383397,1.04548 0.725728,2.11617 1.260117,3.09705 0.203693,0.40425 0.693006,0.71394 1.142523,0.51698 0.463687,-0.17399 0.585072,-0.72794 0.508349,-1.16857 -0.173545,-1.11688 -0.498198,-2.20408 -0.770482,-3.29963 -1.041264,-3.88587 -2.101302,-7.77053 -3.384853,-11.58472 -0.325781,-0.90275 -0.598418,-1.83675 -1.075007,-2.67493 -0.163606,-0.27405 -0.457761,-0.47309 -0.785007,-0.45932 z"
     id="path4474" />
  <path
     style="fill:#FFFFFF;stroke-width:0.0331456"
     d="m 23.62047,114.61416 c -0.615705,0.0258 -0.979975,0.66232 -1.010813,1.22043 -0.03196,0.66768 -0.05683,1.35464 0.112838,2.00693 0.121437,0.51686 0.710412,0.91902 1.223734,0.67897 0.597485,-0.29913 0.789748,-1.01208 0.89927,-1.61941 0.110054,-0.70338 -0.01328,-1.51437 -0.539006,-2.03089 -0.185389,-0.16831 -0.434153,-0.26844 -0.686023,-0.25603 z"
     id="path4513" />
  <path
     style="fill:#FFFFFF;stroke-width:0.0331456"
     d="m 41.694225,164.76246 c -0.684989,-0.008 -1.240955,0.64532 -1.195832,1.3145 0.04638,0.88927 0.594666,1.70914 1.312482,2.21089 0.526032,0.33295 1.307213,0.4731 1.798028,0.002 0.525879,-0.51953 0.448939,-1.37089 0.157053,-1.99049 -0.37239,-0.79779 -1.144127,-1.5338 -2.071731,-1.53654 z"
     id="path4552" />
  <path
     style="fill:#FFFFFF;stroke-width:0.0331456"
     d="m 65.784236,164.97182 c -0.703306,-0.0186 -1.294934,0.46025 -1.666992,1.01794 -0.335814,0.47073 -0.534506,1.03172 -0.952484,1.44455 -1.060551,1.15992 -2.378627,2.08037 -3.826767,2.69011 -0.721366,0.35677 -1.500383,0.66148 -2.084613,1.2326 -0.326103,0.3056 -0.434561,0.85782 -0.110896,1.20554 0.359505,0.42847 0.974752,0.40576 1.46341,0.25554 1.664295,-0.49253 3.260247,-1.18701 4.854108,-1.86788 1.501706,-0.67147 3.01686,-1.32603 4.447885,-2.14102 0.554219,-0.33868 1.206617,-0.7538 1.29857,-1.45633 0.07855,-0.62243 -0.411239,-1.12313 -0.914405,-1.40288 -0.654811,-0.37968 -1.325978,-0.77496 -2.072262,-0.93978 -0.143562,-0.0263 -0.289543,-0.0403 -0.435554,-0.0384 z"
     id="path4591" />
  <path
     style="fill:#FFFFFF;stroke-width:0.0331456"
     d="m 68.910413,65.956827 c -0.646308,0.03669 -1.119289,0.552207 -1.564691,0.964289 -1.249998,1.273105 -2.356591,2.684619 -3.348954,4.165903 -0.360941,0.591234 -0.795881,1.185145 -0.888588,1.888977 -0.07368,0.493555 0.340986,0.978648 0.843724,0.965238 1.263646,-0.0363 2.36584,-0.81204 3.184604,-1.720644 0.797576,-0.854956 1.38231,-1.876662 1.88508,-2.925264 0.354135,-0.747133 0.772075,-1.510364 0.81522,-2.352999 0.02181,-0.520259 -0.388011,-1.005608 -0.926395,-0.9855 z"
     id="path4630" />
  <path
     style="fill:#FFFFFF;stroke-width:0.0331456"
     d="m 72.982082,60.455882 c -0.652289,0.03529 -1.124104,0.561284 -1.563802,0.984144 -0.645755,0.690286 -1.277029,1.406309 -1.781383,2.208194 -0.293754,0.433149 -0.0863,1.111457 0.433845,1.248665 0.521064,0.152219 0.94939,-0.276084 1.341453,-0.547881 0.820371,-0.645594 1.648969,-1.301489 2.322978,-2.10397 0.456759,-0.517806 0.299759,-1.480991 -0.373665,-1.729788 -0.120887,-0.04485 -0.250731,-0.06382 -0.379426,-0.05936 z"
     id="path4669" />
  <path
     style="fill:#FFFFFF;stroke-width:0.0234375"
     d="m 42.515281,88.864596 c -0.616586,0.01627 -1.082673,0.485827 -1.473445,0.911745 -0.552422,0.627435 -1.094636,1.308795 -1.337083,2.122005 -0.13181,0.485227 -0.06358,1.100557 0.379208,1.409025 0.360153,0.286815 0.854063,0.284647 1.27739,0.16347 1.01318,-0.290723 1.949838,-0.991493 2.346785,-1.990673 0.255949,-0.567322 0.227882,-1.236457 -0.04698,-1.791465 -0.190436,-0.467392 -0.6164,-0.847717 -1.145875,-0.824107 z"
     id="path4708" />
  <path
     style="fill:#FFFFFF;stroke-width:0.0234375"
     d="m 97.677819,55.421477 c -0.647588,-0.01043 -1.355273,0.267973 -1.661228,0.8703 -0.266107,0.555166 -0.0699,1.266921 0.408188,1.643784 0.419932,0.366299 0.990105,0.524397 1.540747,0.473647 0.826523,-0.01946 1.681448,-0.512925 1.95195,-1.321701 0.131434,-0.390111 0.121174,-0.887987 -0.224902,-1.166885 -0.42021,-0.349015 -0.99081,-0.416767 -1.514363,-0.479269 -0.166312,-0.01501 -0.33339,-0.02244 -0.500392,-0.01988 z"
     id="path4747" />
  <path
     style="fill:#FFFFFF;stroke-width:0.0117188"
     d="m 132.83322,61.901487 c -0.35189,7.22e-4 -0.68347,0.265428 -0.74812,0.613678 -0.0662,0.317997 0.0371,0.636923 0.15415,0.929741 0.36941,0.934342 0.8386,1.824458 1.24569,2.742174 0.44774,0.950935 0.95232,1.881168 1.5805,2.726202 0.2713,0.349011 0.55816,0.713264 0.96096,0.916203 0.43276,0.209201 1.00072,0.06786 1.27761,-0.327363 0.25783,-0.355038 0.25412,-0.824952 0.16645,-1.236941 -0.13644,-0.628471 -0.41946,-1.216003 -0.76433,-1.755509 -0.66139,-1.051595 -1.37965,-2.066183 -2.10621,-3.073413 -0.34852,-0.460797 -0.71377,-0.915035 -1.14742,-1.299206 -0.17118,-0.14746 -0.39053,-0.243609 -0.61928,-0.235566 z"
     id="path4786" />
  <path
     style="fill:#FFFFFF;stroke-width:0.0662912"
     d="m 116.70551,143.94966 c -1.20387,-0.0496 -2.29995,1.10826 -2.23254,2.29573 0.19363,1.08339 1.38514,1.519 2.35062,1.64886 1.17822,0.0694 2.46278,0.0759 3.51097,-0.54224 0.68126,-0.37264 0.86463,-1.35662 0.32602,-1.92905 -0.89577,-0.96483 -2.26241,-1.32408 -3.53091,-1.461 -0.14112,-0.0104 -0.28268,-0.0151 -0.42416,-0.0123 z"
     id="path4825" />
  <path
     style="fill:#FFFFFF;stroke-width:0.0662912"
     d="m 128.18153,146.42976 c -0.85781,-0.0271 -1.93495,0.26519 -2.14838,1.22173 -0.26123,1.21833 0.61558,2.322 1.49984,3.04952 0.66636,0.52855 1.56486,0.074 2.01101,-0.52036 0.6217,-0.74694 1.28104,-1.80337 0.82916,-2.79265 -0.40795,-0.79474 -1.37111,-1.01232 -2.19163,-0.95824 z"
     id="path4864" />
  <path
     style="fill:#FFFFFF;stroke-width:0.0662912"
     d="m 147.55502,137.51773 c -1.24516,0.0893 -2.18783,1.03928 -3.05562,1.83919 -0.95982,1.00563 -1.944,1.99658 -2.83122,3.06584 -0.35191,0.58368 0.16775,1.15718 0.60575,1.50046 1.01243,0.85429 1.90391,1.85997 2.99728,2.61296 0.53311,0.40845 1.39698,0.17421 1.56885,-0.49757 0.35376,-1.21736 -0.0443,-2.66657 0.82825,-3.71089 1.11932,-0.79687 1.56553,-2.35843 1.23222,-3.66272 -0.17356,-0.58699 -0.67954,-1.18746 -1.34551,-1.14727 z"
     id="path4903" />
  <path
     style="fill:#FFFFFF;stroke-width:0.0662912"
     d="m 153.28818,100.72051 c -1.15612,-0.007 -2.44578,0.16904 -3.25112,1.09161 -0.48772,0.32483 -1.04937,-0.11615 -1.57675,-0.0373 -1.69468,0.0828 -3.22111,1.0464 -4.40629,2.20056 -0.53202,0.53627 -0.24876,1.47896 0.44513,1.71282 1.03907,0.43213 2.18233,0.69059 3.30706,0.48903 1.12508,-0.16509 2.18838,-0.76113 3.1096,-1.33786 -0.0716,0.74748 0.74291,1.28228 1.42215,1.04939 1.24336,-0.37976 2.21936,-1.33566 3.04461,-2.30271 0.50964,-0.59486 0.89571,-1.5778 0.28394,-2.23565 -0.63348,-0.57094 -1.56924,-0.60549 -2.37833,-0.6299 z"
     id="path4981" />
  <path
     style="fill:#FFFFFF;stroke-width:0.0662912"
     d="m 155.05811,103.43832 c -0.73834,0.007 -1.40658,0.65158 -1.55085,1.35664 -0.0458,1.11393 0.7805,2.02067 1.51605,2.76102 0.60785,0.52321 1.28336,1.23901 2.15832,1.14434 0.64188,-0.0852 0.83,-0.81745 0.72078,-1.3648 -0.22331,-0.96085 -0.49134,-1.94854 -1.02816,-2.78734 -0.41109,-0.59601 -1.05338,-1.13164 -1.81614,-1.10986 z"
     id="path5020" />
  <path
     style="fill:#FFFFFF;stroke-width:0.0662912"
     d="m 145.43124,105.62826 c -0.72913,0.0445 -0.92905,0.87199 -0.90995,1.47576 -0.0443,1.1389 -0.0602,2.4183 0.73801,3.33075 0.6463,0.79618 1.97316,0.56654 2.50418,-0.24147 0.55357,-0.85129 -0.0118,-1.84746 -0.41906,-2.62859 -0.42012,-0.70221 -0.80394,-1.55576 -1.59544,-1.8989 -0.10257,-0.0314 -0.21065,-0.0443 -0.31774,-0.0376 z"
     id="path5059" />
  <path
     style="fill:#FFFFFF;stroke-width:0.0234375"
     d="m 164.00351,153.45509 c -0.60285,0.021 -1.06715,0.47135 -1.47711,0.86477 -0.63733,0.65704 -1.22505,1.36455 -1.75163,2.11331 -0.21731,0.29902 -0.38248,0.70453 -0.19693,1.06013 0.18899,0.40207 0.72216,0.54556 1.10459,0.3381 0.53674,-0.28826 0.99222,-0.70273 1.47103,-1.07483 0.57833,-0.48905 1.18085,-0.97005 1.63411,-1.58294 0.40083,-0.52549 0.2092,-1.42455 -0.42965,-1.66329 -0.11327,-0.0407 -0.23423,-0.0581 -0.35441,-0.0553 z"
     id="path5098" />
  <path
     style="fill:#FFFFFF;stroke-width:0.0234375"
     d="m 170.77805,145.38184 c -0.50214,0.0211 -0.85509,0.43217 -1.18395,0.76405 -0.69,0.76001 -1.26644,1.6148 -1.83178,2.4691 -0.40367,0.65125 -0.83104,1.30782 -1.04916,2.04912 -0.12759,0.40951 -0.0167,0.92431 0.38071,1.14265 0.39691,0.2446 0.9045,0.0827 1.22421,-0.21527 0.68478,-0.61193 1.19832,-1.38502 1.71603,-2.13623 0.54495,-0.83397 1.10064,-1.67546 1.46547,-2.60721 0.15657,-0.39023 0.20148,-0.89524 -0.11838,-1.21811 -0.15567,-0.16156 -0.37887,-0.2531 -0.60315,-0.2481 z"
     id="path5137" />
  <path
     style="fill:#FFFFFF;stroke-width:0.0662912"
     d="m 89.811579,157.86823 c -0.731573,0.17127 -1.176863,0.86764 -1.661295,1.38901 -1.168575,1.53871 -2.179613,3.21132 -2.951903,4.9835 -0.40365,0.89678 -0.313395,2.00728 0.362018,2.75057 0.574987,0.66043 1.20627,1.3918 2.07924,1.6332 0.697117,0.1429 1.224495,-0.53565 1.261605,-1.17395 0.252367,-1.89773 -0.06368,-3.88497 0.65679,-5.7079 0.299017,-0.90786 1.198635,-1.49356 1.351365,-2.46872 0.132802,-0.66387 -0.35475,-1.48305 -1.09782,-1.40571 z"
     id="path5176" />
  <path
     style="fill:#FFFFFF;stroke-width:0.0331456"
     d="m 125.91145,176.5056 c -0.58407,0.0406 -1.23969,-0.005 -1.73445,0.36175 -0.38522,0.28002 -0.45484,0.8724 -0.13596,1.22893 0.372,0.42548 0.9526,0.59678 1.49234,0.68866 0.71721,0.0724 1.54366,-0.009 2.04881,-0.58432 0.37633,-0.40858 0.26239,-1.12629 -0.22386,-1.3969 -0.42601,-0.27801 -0.95385,-0.30474 -1.44688,-0.29812 z"
     id="path5215" />
  <path
     style="fill:none;stroke:#FFFFFF;stroke-width:0.75px;stroke-linecap:butt;stroke-linejoin:miter;stroke-opacity:1"
     d="m 432.78363,118.85402 c -1.46341,-0.86808 -6.07987,-0.23501 -9.1198,-0.35252"
     id="path5291" />
  <path
     style="fill:#FFFFFF;stroke-width:0.0117188"
     d="m 425.64198,114.68368 c -0.45026,-0.003 -0.84381,0.34489 -0.97393,0.76299 -0.12438,0.35745 -0.0859,0.7426 -0.0869,1.11407 0.023,0.58024 0.12816,1.15323 0.22247,1.72506 0.0424,0.32742 0.31213,0.60898 0.64108,0.65334 0.34682,0.0305 0.69589,0.0388 1.04391,0.0408 0.36935,7.5e-4 0.70582,-0.30948 0.7309,-0.67846 0.0156,-0.1416 -0.0169,-0.29417 0.0614,-0.42313 0.21567,-0.49101 0.24457,-1.05267 0.12442,-1.57182 -0.15853,-0.60559 -0.55618,-1.15658 -1.11279,-1.45372 -0.19975,-0.10533 -0.42316,-0.17333 -0.65054,-0.16912 z"
     id="path5410" />
  <rect
     style="fill:none;stroke-width:0.75"
     id="rect6040"
     width="472.29492"
     height="246.35596"
     x="0"
     y="0" />
  <rect
     style="fill:none;stroke-width:0.75"
     id="rect6216"
     width="452.46671"
     height="246.35596"
     x="0"
     y="0" />
  <rect
     style="fill:none;stroke-width:0.75"
     id="rect6220"
     width="452.46671"
     height="246.35596"
     x="0"
     y="0" />
  <rect
     style="fill:none;stroke-width:0.75"
     id="rect6222"
     width="24.359966"
     height="0.20444122"
     x="448.69989"
     y="232.056" />
  <rect
     style="fill:none;stroke-width:0.75"
     id="rect6224"
     width="452.46671"
     height="246.35596"
     x="0"
     y="0" />
</svg>
